<?xml version="1.0" encoding="utf-8"?>
<!-- Generator: Adobe Illustrator 25.4.1, SVG Export Plug-In . SVG Version: 6.00 Build 0)  -->
<svg version="1.1" id="Layer_1" xmlns="http://www.w3.org/2000/svg" xmlns:xlink="http://www.w3.org/1999/xlink" x="0px" y="0px"
	 viewBox="0 0 1009.6 479.1" style="enable-background:new 0 0 1009.6 479.1;" xml:space="preserve">
<style type="text/css">
	.st0{fill:#F7F7F7;}
	.st1{font-family:'S-CoreDream-9Black';}
	.st2{font-size:25px;}
	.st3{fill:#C54B3C;}
	.st4{fill:none;stroke:#EDEDED;stroke-width:3;stroke-miterlimit:10;}
</style>
<rect x="-14.5" y="-133.4" class="st0" width="239.5" height="786.9"/>
<rect x="-13" class="st0" width="1044.8" height="79.2"/>
<text transform="matrix(1 0 0 1 291.4999 51.5619)" class="st1 st2">전체언어</text>
<text transform="matrix(1 0 0 1 43.5002 141.8107)" class="st1 st2">언어발달연령</text>
<text transform="matrix(1 0 0 1 234.1808 141.2538)" class="st1 st2">1세 3개월(15개월)</text>
<text transform="matrix(1 0 0 1 483.6008 140.2106)" class="st1 st2">1세 7개월(19개월)</text>
<text transform="matrix(1 0 0 1 756.09 141.0785)" class="st1 st2">0세 11개월(11개월)</text>
<text transform="matrix(1 0 0 1 312.6254 245.8406)" class="st1 st2">53점</text>
<text transform="matrix(1 0 0 1 557.6252 245.8824)" class="st1 st2">34점</text>
<text transform="matrix(1 0 0 1 836.6251 245.7503)" class="st1 st2">19점</text>
<text transform="matrix(1 0 0 1 280.5509 341.2458)" class="st1 st2">1%ile 미만</text>
<text transform="matrix(1 0 0 1 526.0505 341.2025)" class="st1 st2">1%ile 미만</text>
<text transform="matrix(1 0 0 1 804.5509 341.0704)" class="st1 st2">1%ile 미만</text>
<text transform="matrix(1 0 0 1 268.5002 441.2148)" class="st3 st1 st2">언어발달지체</text>
<text transform="matrix(1 0 0 1 513.9998 441.0865)" class="st3 st1 st2">언어발달지체</text>
<text transform="matrix(1 0 0 1 792.5001 440.9544)" class="st3 st1 st2">언어발달지체</text>
<text transform="matrix(1 0 0 1 67.0002 245.4377)" class="st1 st2">획득점수</text>
<text transform="matrix(1 0 0 1 78.6721 340.4489)" class="st1 st2">백분위</text>
<text transform="matrix(1 0 0 1 90.0002 441.3362)" class="st1 st2">결과</text>
<text transform="matrix(1 0 0 1 536.5002 51.5619)" class="st1 st2">이해언어</text>
<text transform="matrix(1 0 0 1 815.4999 51.5619)" class="st1 st2">표현언어</text>
<rect x="1.6" y="1.7" class="st4" width="1006.4" height="476.4"/>
<line class="st4" x1="0" y1="79.2" x2="1009.6" y2="79.2"/>
<line class="st4" x1="0" y1="183.2" x2="1009.6" y2="183.2"/>
<line class="st4" x1="0" y1="280.5" x2="1009.6" y2="280.5"/>
<line class="st4" x1="0" y1="380.5" x2="1009.6" y2="380.5"/>
<line class="st4" x1="225" y1="-41" x2="225" y2="559"/>
<line class="st4" x1="450" y1="-47.2" x2="450" y2="567.1"/>
<line class="st4" x1="724" y1="559" x2="724" y2="-41"/>
</svg>
