<?xml version="1.0" encoding="utf-8"?>
<!-- Generator: Adobe Illustrator 25.4.1, SVG Export Plug-In . SVG Version: 6.00 Build 0)  -->
<svg version="1.1" id="Layer_1" xmlns="http://www.w3.org/2000/svg" xmlns:xlink="http://www.w3.org/1999/xlink" x="0px" y="0px"
	 viewBox="0 0 576.5 265.6" style="enable-background:new 0 0 576.5 265.6;" xml:space="preserve">
<style type="text/css">
	.st0{fill:#AAA464;}
	.st1{fill:#E2B764;}
	.st2{fill:none;stroke:#000000;stroke-miterlimit:10;}
</style>
<path class="st0" d="M404.6,262.4h-87c-2.2,0.1-4.1-1.6-4.3-3.8v-16.1c0.1-2.2,2-4,4.3-3.8h87c2.2-0.1,4.1,1.6,4.3,3.8v16.1
	C408.8,260.8,406.9,262.5,404.6,262.4z"/>
<path class="st1" d="M177.2,262.5H9.2c-3.3,0-5.9-2.4-5.9-5.3v-13.2c0-2.9,2.6-5.3,5.9-5.3h168c3.3,0,5.9,2.4,5.9,5.3v13.2
	C183.1,260.1,180.4,262.5,177.2,262.5z"/>
<path class="st2" d="M257,265.1H9.2c-4.8,0-8.7-2.9-8.7-6.5v-16.2c0-3.6,3.9-6.5,8.7-6.5H257c4.8,0,8.7,2.9,8.7,6.5v16.2
	C265.7,262.2,261.7,265.1,257,265.1z"/>
<path class="st1" d="M124,79.2c0-5.5-4.4-9.9-9.9-9.9c-5.5,0-9.9,4.4-9.9,9.9c0,5.5,4.4,9.9,9.9,9.9C119.5,89.1,124,84.7,124,79.2
	C124,79.3,124,79.2,124,79.2z M168.5,119.4c-4.7-2.7-10.8-1.2-13.6,3.5l0,0c-3.5,6.2-11.4,8.3-17.6,4.8c-2-1.1-3.7-2.8-4.8-4.8
	c-2.8-4.7-8.8-6.3-13.5-3.6l0,0c-4.7,2.7-6.4,8.7-3.7,13.5c9,15.7,29,21.1,44.7,12.1c5-2.9,9.2-7.1,12.1-12.1
	c2.7-4.6,1.2-10.6-3.4-13.3C168.6,119.5,168.6,119.4,168.5,119.4L168.5,119.4z M173.5,69.3c-5.5,0-9.9,4.4-9.9,9.9s4.4,9.9,9.9,9.9
	c5.5,0,9.9-4.4,9.9-9.9c0,0,0,0,0,0l0,0C183.4,73.7,179,69.3,173.5,69.3z M143.8,0c-54.7,0-99,44.3-99,99s44.3,99,99,99
	s99-44.3,99-99l0,0C242.8,44.3,198.5,0,143.8,0z M143.8,178.2c-43.7,0.3-79.4-35-79.6-78.7c-0.2-32.6,19.6-62,49.9-74
	c-0.1,1.4-0.1,2.8,0,4.2c0,16.4,13.3,29.7,29.7,29.7l0,0l0,0c5.5,0,9.9-4.4,9.9-9.9c0-5.5-4.4-9.9-9.9-9.9l0,0
	c-5.4-0.1-9.7-4.7-9.6-10.1c0,0,0-0.1,0-0.1c0.2-5.2,4.4-9.4,9.6-9.6c43.7,0,79.2,35.5,79.2,79.2S187.5,178.2,143.8,178.2z"/>
<path class="st0" d="M414.1,83c0-5.5-4.4-9.9-9.9-9.9c-5.5,0-9.9,4.4-9.9,9.9c0,5.5,4.4,9.9,9.9,9.9l0,0l0,0
	C409.7,92.9,414.1,88.5,414.1,83z M458.6,123.2c-4.7-2.8-10.7-1.2-13.4,3.4c0,0,0,0.1-0.1,0.1l0,0c-3.5,6.2-11.4,8.3-17.6,4.8
	c-2-1.1-3.7-2.8-4.8-4.8c-2.7-4.7-8.8-6.3-13.4-3.5c0,0,0,0-0.1,0l0,0c-4.7,2.7-6.4,8.7-3.7,13.5c9,15.7,29,21.1,44.7,12.1
	c5-2.9,9.2-7.1,12.1-12.1C465,131.9,463.3,125.9,458.6,123.2z M463.6,73.1c-5.5,0-9.9,4.4-9.9,9.9s4.4,9.9,9.9,9.9
	c5.5,0,9.9-4.4,9.9-9.9c0,0,0,0,0,0l0,0C473.4,77.6,469,73.2,463.6,73.1z M433.9,3.9c-54.7,0-99,44.3-99,99s44.3,99,99,99
	c54.7,0,99-44.3,99-99S488.6,3.9,433.9,3.9L433.9,3.9z M433.9,182c-43.7,0.2-79.3-35.1-79.5-78.9c-0.1-32.5,19.6-61.8,49.8-73.8
	c-0.1,1.4-0.1,2.9,0,4.3c0,16.4,13.3,29.7,29.7,29.7l0,0c5.5,0,9.9-4.4,9.9-9.9s-4.4-9.9-9.9-9.9c0,0,0,0,0,0l0,0
	c-5.4-0.1-9.7-4.7-9.6-10.1c0,0,0-0.1,0-0.1c0.2-5.2,4.4-9.4,9.6-9.6c43.7,0,79.2,35.4,79.2,79.1C513.1,146.6,477.6,182,433.9,182
	C433.9,182,433.9,182,433.9,182L433.9,182z"/>
<path class="st2" d="M567.3,265.1H319.5c-4.8,0-8.7-2.9-8.7-6.5v-16.2c0-3.6,3.9-6.5,8.7-6.5h247.8c4.8,0,8.7,2.9,8.7,6.5v16.2
	C576,262.2,572,265.1,567.3,265.1z"/>
</svg>
