<?xml version="1.0" encoding="utf-8"?>
<!-- Generator: Adobe Illustrator 25.4.1, SVG Export Plug-In . SVG Version: 6.00 Build 0)  -->
<svg version="1.1" id="Layer_1" xmlns="http://www.w3.org/2000/svg" xmlns:xlink="http://www.w3.org/1999/xlink" x="0px" y="0px"
	 viewBox="0 0 576.5 265.6" style="enable-background:new 0 0 576.5 265.6;" xml:space="preserve">
<style type="text/css">
	.st0{fill:#AAA464;}
	.st1{fill:#E2B764;}
	.st2{fill:none;stroke:#000000;stroke-miterlimit:10;}
	.st3{fill:none;stroke:#E2B764;stroke-width:18;stroke-miterlimit:10;}
	.st4{fill:none;stroke:#AAA464;stroke-width:18;stroke-miterlimit:10;}
	.st5{fill:#FFFFFF;}
</style>
<path class="st0" d="M404.6,262.4h-87c-2.2,0.1-4.1-1.6-4.3-3.8v-16.1c0.1-2.2,2-4,4.3-3.8h87c2.2-0.1,4.1,1.6,4.3,3.8v16.1
	C408.8,260.8,406.9,262.5,404.6,262.4z"/>
<path class="st1" d="M177.2,262.5H9.2c-3.3,0-5.9-2.4-5.9-5.3V244c0-2.9,2.6-5.3,5.9-5.3h168c3.3,0,5.9,2.4,5.9,5.3v13.2
	C183.1,260.1,180.4,262.5,177.2,262.5z"/>
<path class="st2" d="M257,265.1H9.2c-4.8,0-8.7-2.9-8.7-6.5v-16.2c0-3.6,3.9-6.5,8.7-6.5H257c4.8,0,8.7,2.9,8.7,6.5v16.2
	C265.7,262.2,261.7,265.1,257,265.1z"/>
<path class="st1" d="M124,79.2c0-5.5-4.4-9.9-9.9-9.9s-9.9,4.4-9.9,9.9s4.4,9.9,9.9,9.9C119.5,89.1,124,84.7,124,79.2
	C124,79.3,124,79.2,124,79.2z M168.5,119.4c-4.7-2.7-10.8-1.2-13.6,3.5l0,0c-3.5,6.2-11.4,8.3-17.6,4.8c-2-1.1-3.7-2.8-4.8-4.8
	c-2.8-4.7-8.8-6.3-13.5-3.6l0,0c-4.7,2.7-6.4,8.7-3.7,13.5c9,15.7,29,21.1,44.7,12.1c5-2.9,9.2-7.1,12.1-12.1
	c2.7-4.6,1.2-10.6-3.4-13.3C168.6,119.5,168.6,119.4,168.5,119.4L168.5,119.4z M173.5,69.3c-5.5,0-9.9,4.4-9.9,9.9s4.4,9.9,9.9,9.9
	s9.9-4.4,9.9-9.9l0,0l0,0C183.4,73.7,179,69.3,173.5,69.3z M143.8,0c-54.7,0-99,44.3-99,99s44.3,99,99,99s99-44.3,99-99l0,0
	C242.8,44.3,198.5,0,143.8,0z M143.8,178.2c-43.7,0.3-79.4-35-79.6-78.7c-0.2-32.6,19.6-62,49.9-74c-0.1,1.4-0.1,2.8,0,4.2
	c0,16.4,13.3,29.7,29.7,29.7l0,0l0,0c5.5,0,9.9-4.4,9.9-9.9s-4.4-9.9-9.9-9.9l0,0c-5.4-0.1-9.7-4.7-9.6-10.1v-0.1
	c0.2-5.2,4.4-9.4,9.6-9.6c43.7,0,79.2,35.5,79.2,79.2S187.5,178.2,143.8,178.2z"/>
<path class="st2" d="M567.3,265.1H319.5c-4.8,0-8.7-2.9-8.7-6.5v-16.2c0-3.6,3.9-6.5,8.7-6.5h247.8c4.8,0,8.7,2.9,8.7,6.5v16.2
	C576,262.2,572,265.1,567.3,265.1z"/>
<path class="st1" d="M144-191c-0.3,0-0.6,0-0.9,0V-9.6c0.3,0,0.6,0,0.9,0c50.1,0,90.7-40.6,90.7-90.7S194.1-191,144-191z"/>
<path class="st1" d="M95.5-113.3c0-2-1.6-3.6-3.6-3.6s-3.6,1.6-3.6,3.6s1.6,3.6,3.6,3.6l0,0C93.8-109.7,95.5-111.3,95.5-113.3
	L95.5-113.3z M111.6-98.7c-1.7-1-3.9-0.5-4.9,1.2l0,0l0,0c-1.3,2.2-4.1,3-6.4,1.7c-0.7-0.4-1.3-1-1.7-1.7c-1-1.7-3.2-2.3-4.9-1.3
	l0,0c-1.7,1-2.3,3.2-1.3,4.9c3.3,5.7,10.5,7.7,16.2,4.4l0,0c1.8-1.1,3.3-2.6,4.4-4.4C114-95.5,113.4-97.7,111.6-98.7L111.6-98.7z
	 M113.5-116.9c-2,0-3.6,1.6-3.6,3.6s1.6,3.6,3.6,3.6s3.6-1.6,3.6-3.6l0,0C117.1-115.3,115.5-116.9,113.5-116.9L113.5-116.9z
	 M102.6-142.1c-19.9,0-36,16.1-36,36s16.1,36,36,36s36-16.1,36-36S122.5-142.1,102.6-142.1z M102.6-77.3
	c-15.9,0-28.8-12.8-28.9-28.7c0-11.8,7.1-22.4,18.1-26.8c0,0.5,0,1,0,1.5c0,6,4.8,10.8,10.8,10.8l0,0c2-0.1,3.5-1.7,3.5-3.7l0,0
	c-0.1-1.9-1.6-3.4-3.5-3.5c-2,0-3.6-1.6-3.6-3.6s1.6-3.6,3.6-3.6l0,0l0,0c15.9,0,28.8,12.9,28.8,28.8S118.5-77.3,102.6-77.3z"/>
<circle class="st3" cx="143.1" cy="-104.4" r="90.1"/>
<g>
	<path class="st0" d="M434.1-193.3c-0.3,0-0.6,0-0.9,0v181.4c0.3,0,0.6,0,0.9,0c50.1,0,90.7-40.6,90.7-90.7S484.1-193.3,434.1-193.3
		z"/>
	<path class="st0" d="M385.6-115.6c0-2-1.6-3.6-3.6-3.6s-3.6,1.6-3.6,3.6s1.6,3.6,3.6,3.6l0,0C383.9-112,385.6-113.6,385.6-115.6
		L385.6-115.6z M401.7-101c-1.7-1-3.9-0.5-4.9,1.2l0,0l0,0c-1.3,2.2-4.1,3-6.4,1.7c-0.7-0.4-1.3-1-1.7-1.7c-1-1.7-3.2-2.3-4.9-1.3
		l0,0c-1.7,1-2.3,3.2-1.3,4.9c3.3,5.7,10.5,7.7,16.2,4.4l0,0c1.8-1.1,3.3-2.6,4.4-4.4C404.1-97.8,403.5-100,401.7-101L401.7-101z
		 M403.6-119.2c-2,0-3.6,1.6-3.6,3.6s1.6,3.6,3.6,3.6s3.6-1.6,3.6-3.6l0,0C407.2-117.6,405.6-119.2,403.6-119.2L403.6-119.2z
		 M392.7-144.4c-19.9,0-36,16.1-36,36s16.1,36,36,36c19.9,0,36-16.1,36-36S412.6-144.4,392.7-144.4z M392.7-79.6
		c-15.9,0-28.8-12.8-28.9-28.7c0-11.8,7.1-22.4,18.1-26.8c0,0.5,0,1,0,1.5c0,6,4.8,10.8,10.8,10.8l0,0c2-0.1,3.5-1.7,3.5-3.7l0,0
		c-0.1-1.9-1.6-3.4-3.5-3.5c-2,0-3.6-1.6-3.6-3.6s1.6-3.6,3.6-3.6l0,0l0,0c15.9,0,28.8,12.9,28.8,28.8S408.6-79.6,392.7-79.6z"/>
	<circle class="st4" cx="433.1" cy="-106.7" r="90.1"/>
	<g>
		<path class="st5" d="M445-120.1h16.8v2.3h-7V-96h-2.7v-21.8h-7V-120.1z"/>
		<path class="st5" d="M472.3-120.1l8.4,24.1H478l-1.9-5.7h-10.5l-1.9,5.7h-2.8l8.5-24.1H472.3z M470.8-117.3l-4.5,13.3h8.9
			L470.8-117.3z"/>
		<path class="st5" d="M483.5-120.1h2.7v21.8h11.4v2.3h-14.1V-120.1z"/>
		<path class="st5" d="M508.1-108.3l9.4,12.3h-3.1l-8.4-11.2h-2.9V-96h-2.7v-24.1h2.7v10.6h2.9l7.4-10.6h3L508.1-108.3z"/>
	</g>
</g>
<g>
	<path class="st0" d="M435,12.5c-0.3,0-0.6,0-0.9,0v181.4c0.3,0,0.6,0,0.9,0c50.1,0,90.7-40.6,90.7-90.7S485.1,12.5,435,12.5z"/>
	<path class="st0" d="M386.5,90.2c0-2-1.6-3.6-3.6-3.6s-3.6,1.6-3.6,3.6s1.6,3.6,3.6,3.6l0,0C384.8,93.8,386.5,92.2,386.5,90.2
		L386.5,90.2z M402.6,104.8c-1.7-1-3.9-0.5-4.9,1.2l0,0l0,0c-1.3,2.2-4.1,3-6.4,1.7c-0.7-0.4-1.3-1-1.7-1.7c-1-1.7-3.2-2.3-4.9-1.3
		l0,0c-1.7,1-2.3,3.2-1.3,4.9c3.3,5.7,10.5,7.7,16.2,4.4l0,0c1.8-1.1,3.3-2.6,4.4-4.4C405,108,404.4,105.8,402.6,104.8L402.6,104.8z
		 M404.5,86.6c-2,0-3.6,1.6-3.6,3.6s1.6,3.6,3.6,3.6s3.6-1.6,3.6-3.6l0,0C408.1,88.2,406.5,86.6,404.5,86.6L404.5,86.6z M393.6,61.4
		c-19.9,0-36,16.1-36,36s16.1,36,36,36c19.9,0,36-16.1,36-36S413.5,61.4,393.6,61.4z M393.6,126.2c-15.9,0-28.8-12.8-28.9-28.7
		c0-11.8,7.1-22.4,18.1-26.8c0,0.5,0,1,0,1.5c0,6,4.8,10.8,10.8,10.8l0,0c2-0.1,3.5-1.7,3.5-3.7l0,0c-0.1-1.9-1.6-3.4-3.5-3.5
		c-2,0-3.6-1.6-3.6-3.6s1.6-3.6,3.6-3.6l0,0l0,0c15.9,0,28.8,12.9,28.8,28.8S409.5,126.2,393.6,126.2z"/>
	<circle class="st4" cx="434.1" cy="99.1" r="90.1"/>
	<g>
		<path class="st5" d="M446,85.8h16.8v2.3h-7v21.8H453V88.1h-7V85.8z"/>
		<path class="st5" d="M473.2,85.8l8.4,24.1h-2.8l-1.9-5.7h-10.5l-1.9,5.7h-2.8l8.5-24.1H473.2z M471.7,88.5l-4.5,13.3h8.9
			L471.7,88.5z"/>
		<path class="st5" d="M484.4,85.8h2.7v21.8h11.4v2.3h-14.1V85.8z"/>
		<path class="st5" d="M509,97.5l9.4,12.3h-3.1l-8.4-11.2H504v11.2h-2.7V85.8h2.7v10.6h2.9l7.4-10.6h3L509,97.5z"/>
	</g>
</g>
</svg>
