<?xml version="1.0" encoding="utf-8"?>
<!-- Generator: Adobe Illustrator 25.4.1, SVG Export Plug-In . SVG Version: 6.00 Build 0)  -->
<svg version="1.1" id="Layer_1" xmlns="http://www.w3.org/2000/svg" xmlns:xlink="http://www.w3.org/1999/xlink" x="0px" y="0px"
	 viewBox="0 0 576.5 266.5" style="enable-background:new 0 0 576.5 266.5;" xml:space="preserve">
<style type="text/css">
	.st0{fill:#597479;}
	.st1{fill:#C54B3C;}
	.st2{fill:none;stroke:#000000;stroke-miterlimit:10;}
	.st3{fill:none;stroke:#FFFFFF;stroke-width:6;stroke-linecap:round;stroke-linejoin:round;stroke-miterlimit:10;}
	.st4{fill:none;stroke:#597479;stroke-width:18;stroke-miterlimit:10;}
	.st5{fill:none;stroke:#C54B3C;stroke-width:18;stroke-miterlimit:10;}
	.st6{fill:#FFFFFF;}
</style>
<path class="st0" d="M434.4,12c-0.3,0-0.6,0-0.9,0v181.4c0.3,0,0.6,0,0.9,0c50.1,0,90.7-40.6,90.7-90.7S484.5,12,434.4,12z"/>
<path class="st1" d="M8.7,239.8h55.8c2.9,0,5.3,2.4,5.3,5.3v13c0,2.9-2.4,5.3-5.3,5.3H8.7c-2.9,0-5.3-2.4-5.3-5.3v-13
	C3.4,242.2,5.8,239.8,8.7,239.8z"/>
<path class="st2" d="M257,266H9.2c-4.8,0-8.7-2.9-8.7-6.5v-16.2c0-3.6,3.9-6.5,8.7-6.5H257c4.8,0,8.7,2.9,8.7,6.5v16.2
	C265.7,263.1,261.7,266,257,266z"/>
<path class="st2" d="M567.3,266H319.5c-4.8,0-8.7-2.9-8.7-6.5v-16.2c0-3.6,3.9-6.5,8.7-6.5h247.8c4.8,0,8.7,2.9,8.7,6.5v16.2
	C576,263.1,572,266,567.3,266z"/>
<path class="st0" d="M321.3,239.6h122.3c4.2,0,7.6,3.4,7.6,7.6v8.3c0,4.2-3.4,7.6-7.6,7.6H321.3c-4.2,0-7.6-3.4-7.6-7.6v-8.3
	C313.6,243,317.1,239.6,321.3,239.6z"/>
<g>
	<path class="st3" d="M452.7,81.7c0,0,14.6,17.4,0,35.6"/>
	<path class="st3" d="M468.1,76.9c0,0,17.4,23.3,0.5,43.6"/>
	<path class="st3" d="M483.6,73.4c0,0,20.6,25.9,0,51.7"/>
</g>
<path class="st0" d="M385.8,89.8c0-2-1.6-3.6-3.6-3.6s-3.6,1.6-3.6,3.6s1.6,3.6,3.6,3.6l0,0C384.2,93.4,385.8,91.8,385.8,89.8
	L385.8,89.8z M402,104.4c-1.7-1-3.9-0.5-4.9,1.2l0,0l0,0c-1.3,2.2-4.1,3-6.4,1.7c-0.7-0.4-1.3-1-1.7-1.7c-1-1.7-3.2-2.3-4.9-1.3l0,0
	c-1.7,1-2.3,3.2-1.3,4.9c3.3,5.7,10.5,7.7,16.2,4.4l0,0c1.8-1.1,3.3-2.6,4.4-4.4C404.3,107.5,403.7,105.3,402,104.4L402,104.4z
	 M403.8,86.2c-2,0-3.6,1.6-3.6,3.6s1.6,3.6,3.6,3.6s3.6-1.6,3.6-3.6l0,0C407.4,87.8,405.8,86.2,403.8,86.2L403.8,86.2z M393,61
	c-19.9,0-36,16.1-36,36s16.1,36,36,36s36-16.1,36-36S412.9,61,393,61z M393,125.7c-15.9,0-28.8-12.8-28.9-28.7
	c0-11.8,7.1-22.4,18.1-26.8c0,0.5,0,1,0,1.5c0,6,4.8,10.8,10.8,10.8l0,0c2-0.1,3.5-1.7,3.5-3.7l0,0c-0.1-1.9-1.6-3.4-3.5-3.5
	c-2,0-3.6-1.6-3.6-3.6s1.6-3.6,3.6-3.6l0,0l0,0c15.9,0,28.8,12.9,28.8,28.8S408.9,125.7,393,125.7z"/>
<circle class="st4" cx="433.4" cy="98.7" r="90.1"/>
<path class="st1" d="M144.3,12.6c-0.3,0-0.6,0-0.9,0V194c0.3,0,0.6,0,0.9,0c50.1,0,90.7-40.6,90.7-90.7S194.4,12.6,144.3,12.6z"/>
<path class="st1" d="M95.8,90.3c0-2-1.6-3.6-3.6-3.6s-3.6,1.6-3.6,3.6s1.6,3.6,3.6,3.6l0,0C94.1,93.9,95.8,92.3,95.8,90.3L95.8,90.3
	z M111.9,104.9c-1.7-1-3.9-0.5-4.9,1.2l0,0l0,0c-1.3,2.2-4.1,3-6.4,1.7c-0.7-0.4-1.3-1-1.7-1.7c-1-1.7-3.2-2.3-4.9-1.3l0,0
	c-1.7,1-2.3,3.2-1.3,4.9c3.3,5.7,10.5,7.7,16.2,4.4l0,0c1.8-1.1,3.3-2.6,4.4-4.4C114.3,108.1,113.7,105.9,111.9,104.9L111.9,104.9z
	 M113.8,86.7c-2,0-3.6,1.6-3.6,3.6s1.6,3.6,3.6,3.6s3.6-1.6,3.6-3.6l0,0C117.4,88.3,115.8,86.7,113.8,86.7L113.8,86.7z M102.9,61.5
	c-19.9,0-36,16.1-36,36s16.1,36,36,36s36-16.1,36-36S122.8,61.5,102.9,61.5z M102.9,126.3c-15.9,0-28.8-12.8-28.9-28.7
	c0-11.8,7.1-22.4,18.1-26.8c0,0.5,0,1,0,1.5c0,6,4.8,10.8,10.8,10.8l0,0c2-0.1,3.5-1.7,3.5-3.7l0,0c-0.1-1.9-1.6-3.4-3.5-3.5
	c-2,0-3.6-1.6-3.6-3.6s1.6-3.6,3.6-3.6l0,0l0,0c15.9,0,28.8,12.9,28.8,28.8S118.8,126.3,102.9,126.3z"/>
<circle class="st5" cx="143.4" cy="99.2" r="90.1"/>
<rect x="183.1" y="107.5" class="st6" width="5.7" height="5.9"/>
<path class="st6" d="M180.3,84.7h-5.5c0,0-0.2-5.2,3.1-8.2c0,0,1.6-1.7,4-2.4c0,0,2.4-0.8,5.3-0.6c0,0,3.3,0.2,5.2,1.4
	c1.9,1.1,2.8,2.2,2.8,2.2s1.2,1.5,1.5,2.5c0,0,0.8,1.9,0.9,3.5c0,0,0.3,2.1-0.1,3.7c-0.3,1.2-0.6,2.2-1.1,3.3c-0.5,1-2.7,3.6-3.2,4
	s-1.9,1.8-1.9,1.8s-1.8,1.5-2.4,4c0,0-0.3,1.8-0.2,3.2h-5.5c0,0-0.7-5,1.7-7.9c0,0,2.9-3.5,4.3-4.4c0,0,1.7-1.7,2.2-2.8
	c0.5-1,1.4-4.6-0.2-7.3c0,0-1.4-2.5-5-2.5c0,0-2.9,0.1-4.3,1.7C180.4,81.8,180.3,83.6,180.3,84.7z"/>
</svg>
