<?xml version="1.0" encoding="utf-8"?>
<!-- Generator: Adobe Illustrator 25.4.1, SVG Export Plug-In . SVG Version: 6.00 Build 0)  -->
<svg version="1.1" id="Layer_1" xmlns="http://www.w3.org/2000/svg" xmlns:xlink="http://www.w3.org/1999/xlink" x="0px" y="0px"
	 viewBox="0 0 577.1 291.7" style="enable-background:new 0 0 577.1 291.7;" xml:space="preserve">
<style type="text/css">
	.st0{fill:#E2B764;}
	.st1{fill:#AAA464;}
	.st2{fill:#C54B3C;}
	.st3{fill:#597479;}
	.st4{fill:none;stroke:#000000;stroke-miterlimit:10;}
</style>
<g id="Layer_2_00000094609770919946590240000006408992688085373329_">
	<g id="Layer_1-2_00000146479877840655917910000006038104354076395146_">
		<path class="st0" d="M-546.8-579.4c0-5.5-4.4-9.9-9.9-9.9s-9.9,4.4-9.9,9.9s4.4,9.9,9.9,9.9S-546.8-573.9-546.8-579.4
			L-546.8-579.4z M-502.3-539.2c-4.7-2.8-10.8-1.2-13.6,3.5l0,0c-3.5,6.2-11.4,8.3-17.6,4.8c-2-1.1-3.7-2.8-4.8-4.8
			c-2.7-4.7-8.8-6.3-13.5-3.6l0,0l0,0c-4.7,2.7-6.4,8.7-3.7,13.5c9,15.7,29.1,21.1,44.7,12.1c5-2.9,9.2-7,12.1-12.1
			C-495.9-530.5-497.6-536.5-502.3-539.2L-502.3-539.2z M-497.3-589.3c-5.5,0-9.9,4.4-9.9,9.9s4.4,9.9,9.9,9.9s9.9-4.4,9.9-9.9l0,0
			C-487.4-584.9-491.9-589.3-497.3-589.3L-497.3-589.3L-497.3-589.3z M-527-658.6c-54.7,0-99,44.3-99,99s44.3,99,99,99
			s99-44.3,99-99l0,0C-428-614.3-472.3-658.6-527-658.6z M-527-480.4c-43.7,0.2-79.4-35-79.6-78.7c-0.2-32.6,19.6-62,49.9-74
			c-0.1,1.4-0.1,2.8,0,4.2c0,16.4,13.3,29.7,29.7,29.7l0,0c5.5,0,9.9-4.4,9.9-9.9s-4.4-9.9-9.9-9.9l0,0c-5.5-0.2-9.8-4.7-9.6-10.2
			c0.2-5.2,4.4-9.4,9.6-9.6c43.7,0,79.2,35.5,79.2,79.2S-483.3-480.4-527-480.4z"/>
		<path class="st1" d="M-167.7-575.6c0-5.5-4.4-9.9-9.9-9.9s-9.9,4.4-9.9,9.9s4.4,9.9,9.9,9.9l0,0
			C-172.2-565.7-167.7-570.1-167.7-575.6L-167.7-575.6z M-123.2-535.4c-4.7-2.8-10.8-1.2-13.5,3.5l0,0l0,0
			c-3.5,6.2-11.4,8.3-17.6,4.8c-2-1.1-3.7-2.8-4.8-4.8c-2.8-4.7-8.8-6.3-13.5-3.5l0,0l0,0c-4.7,2.7-6.4,8.7-3.7,13.5
			c9,15.7,29.1,21.1,44.7,12.1c5-2.9,9.2-7,12.1-12.1C-116.8-526.7-118.5-532.7-123.2-535.4z M-118.2-585.5c-5.5,0-9.9,4.4-9.9,9.9
			s4.4,9.9,9.9,9.9s9.9-4.4,9.9-9.9l0,0C-108.4-581-112.8-585.5-118.2-585.5L-118.2-585.5z M-147.9-654.7c-54.7,0-99,44.3-99,99
			s44.3,99,99,99s99-44.3,99-99S-93.3-654.7-147.9-654.7L-147.9-654.7z M-147.9-476.6c-43.7,0.2-79.3-35.1-79.5-78.8
			c-0.1-32.5,19.6-61.8,49.8-73.9c-0.1,1.4-0.1,2.8,0,4.3c0,16.4,13.3,29.7,29.7,29.7c5.5,0,9.9-4.4,9.9-9.9s-4.4-9.9-9.9-9.9l0,0
			c-5.5-0.2-9.8-4.7-9.6-10.2c0.2-5.2,4.4-9.4,9.6-9.6c43.7,0,79.2,35.5,79.2,79.2S-104.2-476.6-147.9-476.6L-147.9-476.6z"/>
		<path class="st2" d="M197.5-579.8c0-5.5-4.4-9.9-9.9-9.9s-9.9,4.4-9.9,9.9s4.4,9.9,9.9,9.9S197.5-574.3,197.5-579.8L197.5-579.8z
			 M242.1-539.6c-4.7-2.8-10.8-1.2-13.5,3.5l0,0c-3.5,6.2-11.4,8.3-17.6,4.8c-2-1.1-3.7-2.8-4.8-4.8c-2.7-4.7-8.8-6.3-13.5-3.6l0,0
			l0,0c-4.7,2.7-6.3,8.7-3.7,13.5c9,15.7,29,21.1,44.7,12.1c5-2.9,9.2-7.1,12.1-12.1C248.4-530.9,246.8-536.9,242.1-539.6
			L242.1-539.6z M247-589.7c-5.5,0-9.9,4.4-9.9,9.9s4.4,9.9,9.9,9.9s9.9-4.4,9.9-9.9l0,0C256.9-585.3,252.5-589.7,247-589.7z
			 M217.3-659c-54.7,0-99,44.3-99,99s44.3,99,99,99s99-44.3,99-99C316.3-614.7,272-659,217.3-659L217.3-659z M217.3-480.8
			c-43.7,0.2-79.3-35.1-79.5-78.8c-0.2-32.5,19.6-61.9,49.8-73.9c-0.1,1.4-0.1,2.8,0,4.2c0,16.4,13.3,29.7,29.7,29.7l0,0
			c5.5,0.2,10-4.1,10.2-9.6s-4.1-10-9.6-10.2c-0.2,0-0.4,0-0.6,0c-5.5,0-9.9-4.4-9.9-9.9s4.4-9.9,9.9-9.9
			c43.7,0,79.2,35.5,79.2,79.2C296.5-516.3,261.1-480.9,217.3-480.8z"/>
		<path class="st3" d="M579.8-582.2c0-5.5-4.4-9.9-9.9-9.9s-9.9,4.4-9.9,9.9s4.4,9.9,9.9,9.9S579.8-576.8,579.8-582.2L579.8-582.2z
			 M624.3-542c-4.7-2.8-10.8-1.2-13.5,3.5l0,0l0,0c-3.5,6.2-11.4,8.3-17.6,4.8c-2-1.1-3.7-2.8-4.8-4.8c-2.7-4.7-8.8-6.3-13.5-3.6
			l0,0l0,0c-4.7,2.7-6.3,8.7-3.7,13.5c9,15.7,29,21.1,44.7,12.1c5-2.9,9.2-7.1,12.1-12.1C630.7-533.4,629-539.3,624.3-542L624.3-542
			z M629.3-592.1c-5.5,0-9.9,4.4-9.9,9.9s4.4,9.9,9.9,9.9s9.9-4.4,9.9-9.9C639.2-587.7,634.8-592.1,629.3-592.1L629.3-592.1
			L629.3-592.1z M599.6-661.4c-54.7,0-99,44.3-99,99s44.3,99,99,99s99-44.3,99-99S654.3-661.4,599.6-661.4z M599.6-483.3
			c-43.7,0.2-79.3-35.1-79.5-78.9c-0.1-32.5,19.6-61.8,49.8-73.9c-0.1,1.4-0.1,2.8,0,4.2c0,16.4,13.3,29.7,29.7,29.7
			c5.5-0.2,9.8-4.7,9.6-10.2c-0.2-5.2-4.4-9.4-9.6-9.6c-5.5,0-9.9-4.4-9.9-9.9s4.4-9.9,9.9-9.9l0,0c43.7,0,79.2,35.5,79.2,79.2
			S643.3-483.3,599.6-483.3z"/>
	</g>
</g>
<path class="st0" d="M-434.6-393.5h-185.2c-3.6,0-6.5-2.9-6.5-6.5v-16.2c0-3.6,2.9-6.5,6.5-6.5h185.2c3.6,0,6.5,2.9,6.5,6.5v16.2
	C-428.1-396.4-431.1-393.5-434.6-393.5z"/>
<path class="st3" d="M627.3-393.5H507.2c-2.9,0-5.2-2.4-5.2-5.2v-18.6c0-2.9,2.4-5.2,5.2-5.2h120.1c2.9,0,5.2,2.4,5.2,5.2v18.6
	C632.6-395.8,630.2-393.5,627.3-393.5z"/>
<path class="st1" d="M-144.2-393.5h-95.9c-2.6,0-4.7-2.1-4.7-4.7v-19.7c0-2.6,2.1-4.7,4.7-4.7h95.9c2.6,0,4.7,2.1,4.7,4.7v19.7
	C-139.5-395.6-141.6-393.5-144.2-393.5z"/>
<path class="st2" d="M188.3-393.5h-64.6c-2.1,0-3.9-1.8-3.9-3.9v-21.3c0-2.1,1.8-3.9,3.9-3.9h64.6c2.1,0,3.9,1.8,3.9,3.9v21.3
	C192.2-395.2,190.4-393.5,188.3-393.5z"/>
<path class="st1" d="M404.9-26.5h-87c-2.4,0-4.3-1.7-4.3-3.8v-16.1c0-2.1,1.9-3.8,4.3-3.8h87c2.4,0,4.3,1.7,4.3,3.8v16.1
	C409.1-28.2,407.2-26.5,404.9-26.5z"/>
<path class="st0" d="M177.4-26.4H9.4c-3.3,0-5.9-2.4-5.9-5.3v-13.2c0-2.9,2.6-5.3,5.9-5.3h168c3.3,0,5.9,2.4,5.9,5.3v13.2
	C183.3-28.8,180.6-26.4,177.4-26.4z"/>
<path class="st4" d="M257.2-23.8H9.4c-4.8,0-8.7-2.9-8.7-6.5v-16.2c0-3.6,3.9-6.5,8.7-6.5h247.8c4.8,0,8.7,2.9,8.7,6.5v16.2
	C265.9-26.7,261.9-23.8,257.2-23.8z"/>
<path class="st0" d="M124.2-209.7c0-5.5-4.4-9.9-9.9-9.9s-9.9,4.4-9.9,9.9s4.4,9.9,9.9,9.9S124.2-204.2,124.2-209.7L124.2-209.7z
	 M168.7-169.5c-4.7-2.8-10.8-1.2-13.6,3.5l0,0c-3.5,6.2-11.4,8.3-17.6,4.8c-2-1.1-3.7-2.8-4.8-4.8c-2.7-4.7-8.8-6.3-13.5-3.6l0,0
	l0,0c-4.7,2.7-6.4,8.7-3.7,13.5c9,15.7,29.1,21.1,44.7,12.1c5-2.9,9.2-7,12.1-12.1C175.1-160.8,173.4-166.8,168.7-169.5L168.7-169.5
	z M173.7-219.6c-5.5,0-9.9,4.4-9.9,9.9s4.4,9.9,9.9,9.9s9.9-4.4,9.9-9.9l0,0C183.6-215.2,179.1-219.6,173.7-219.6L173.7-219.6
	L173.7-219.6z M144-288.9c-54.7,0-99,44.3-99,99s44.3,99,99,99s99-44.3,99-99l0,0C243-244.6,198.7-288.9,144-288.9z M144-110.7
	c-43.7,0.2-79.4-35-79.6-78.7c-0.2-32.6,19.6-62,49.9-74c-0.1,1.4-0.1,2.8,0,4.2c0,16.4,13.3,29.7,29.7,29.7l0,0
	c5.5,0,9.9-4.4,9.9-9.9s-4.4-9.9-9.9-9.9l0,0c-5.5-0.2-9.8-4.7-9.6-10.2c0.2-5.2,4.4-9.4,9.6-9.6c43.7,0,79.2,35.5,79.2,79.2
	S187.7-110.7,144-110.7z"/>
<path class="st1" d="M414.3-205.9c0-5.5-4.4-9.9-9.9-9.9s-9.9,4.4-9.9,9.9s4.4,9.9,9.9,9.9l0,0C409.8-196,414.3-200.4,414.3-205.9
	L414.3-205.9z M458.8-165.7c-4.7-2.8-10.8-1.2-13.5,3.5l0,0l0,0c-3.5,6.2-11.4,8.3-17.6,4.8c-2-1.1-3.7-2.8-4.8-4.8
	c-2.8-4.7-8.8-6.3-13.5-3.5l0,0l0,0c-4.7,2.7-6.4,8.7-3.7,13.5c9,15.7,29.1,21.1,44.7,12.1c5-2.9,9.2-7,12.1-12.1
	C465.2-157,463.5-163,458.8-165.7z M463.8-215.8c-5.5,0-9.9,4.4-9.9,9.9s4.4,9.9,9.9,9.9s9.9-4.4,9.9-9.9l0,0
	C473.6-211.3,469.2-215.8,463.8-215.8L463.8-215.8z M434.1-285c-54.7,0-99,44.3-99,99s44.3,99,99,99s99-44.3,99-99
	S488.7-285,434.1-285L434.1-285z M434.1-106.9c-43.7,0.2-79.3-35.1-79.5-78.8c-0.1-32.5,19.6-61.8,49.8-73.9c-0.1,1.4-0.1,2.8,0,4.3
	c0,16.4,13.3,29.7,29.7,29.7c5.5,0,9.9-4.4,9.9-9.9s-4.4-9.9-9.9-9.9l0,0c-5.5-0.2-9.8-4.7-9.6-10.2c0.2-5.2,4.4-9.4,9.6-9.6
	c43.7,0,79.2,35.5,79.2,79.2S477.8-106.9,434.1-106.9L434.1-106.9z"/>
<path class="st4" d="M567.5-23.8H319.7c-4.8,0-8.7-2.9-8.7-6.5v-16.2c0-3.6,3.9-6.5,8.7-6.5h247.8c4.8,0,8.7,2.9,8.7,6.5v16.2
	C576.2-26.7,572.2-23.8,567.5-23.8z"/>
<g>
	<path class="st2" d="M64.7,273.6H8.9c-2.9,0-5.3-2.4-5.3-5.3v-13c0-2.9,2.4-5.3,5.3-5.3h55.8c2.9,0,5.3,2.4,5.3,5.3v13
		C70,271.2,67.6,273.6,64.7,273.6z"/>
	<g>
		<path class="st2" d="M124.2,91.8c0-5.5-4.4-9.9-9.9-9.9s-9.9,4.4-9.9,9.9s4.4,9.9,9.9,9.9S124.2,97.3,124.2,91.8L124.2,91.8z
			 M168.8,132c-4.7-2.8-10.8-1.2-13.5,3.5l0,0c-3.5,6.2-11.4,8.3-17.6,4.8c-2-1.1-3.7-2.8-4.8-4.8c-2.7-4.7-8.8-6.3-13.5-3.6l0,0
			l0,0c-4.7,2.7-6.3,8.7-3.7,13.5c9,15.7,29,21.1,44.7,12.1c5-2.9,9.2-7.1,12.1-12.1C175.1,140.7,173.5,134.7,168.8,132L168.8,132z
			 M173.7,81.9c-5.5,0-9.9,4.4-9.9,9.9s4.4,9.9,9.9,9.9s9.9-4.4,9.9-9.9l0,0C183.6,86.3,179.2,81.9,173.7,81.9z M144,12.6
			c-54.7,0-99,44.3-99,99s44.3,99,99,99s99-44.3,99-99S198.7,12.6,144,12.6L144,12.6z M144,190.8c-43.7,0.2-79.3-35.1-79.5-78.8
			C64.2,79.5,84,50.1,114.2,38.1c-0.1,1.4-0.1,2.8,0,4.2c0,16.4,13.3,29.7,29.7,29.7l0,0c5.5,0.2,10-4.1,10.2-9.6s-4.1-10-9.6-10.2
			c-0.2,0-0.4,0-0.6,0c-5.5,0-9.9-4.4-9.9-9.9s4.4-9.9,9.9-9.9c43.7,0,79.2,35.5,79.2,79.2C223.2,155.3,187.8,190.7,144,190.8z"/>
		<path class="st3" d="M414.1,89.4c0-5.5-4.4-9.9-9.9-9.9s-9.9,4.4-9.9,9.9s4.4,9.9,9.9,9.9S414.1,94.8,414.1,89.4L414.1,89.4z
			 M458.6,129.6c-4.7-2.8-10.8-1.2-13.5,3.5l0,0l0,0c-3.5,6.2-11.4,8.3-17.6,4.8c-2-1.1-3.7-2.8-4.8-4.8c-2.7-4.7-8.8-6.3-13.5-3.6
			l0,0l0,0c-4.7,2.7-6.3,8.7-3.7,13.5c9,15.7,29,21.1,44.7,12.1c5-2.9,9.2-7.1,12.1-12.1C465,138.2,463.3,132.3,458.6,129.6
			L458.6,129.6z M463.6,79.5c-5.5,0-9.9,4.4-9.9,9.9s4.4,9.9,9.9,9.9s9.9-4.4,9.9-9.9C473.5,83.9,469.1,79.5,463.6,79.5L463.6,79.5
			L463.6,79.5z M433.9,10.2c-54.7,0-99,44.3-99,99s44.3,99,99,99s99-44.3,99-99S488.6,10.2,433.9,10.2z M433.9,188.3
			c-43.7,0.2-79.3-35.1-79.5-78.9c-0.1-32.5,19.6-61.8,49.8-73.9c-0.1,1.4-0.1,2.8,0,4.2c0,16.4,13.3,29.7,29.7,29.7
			c5.5-0.2,9.8-4.7,9.6-10.2c-0.2-5.2-4.4-9.4-9.6-9.6c-5.5,0-9.9-4.4-9.9-9.9s4.4-9.9,9.9-9.9l0,0c43.7,0,79.2,35.5,79.2,79.2
			S477.6,188.3,433.9,188.3z"/>
		<path class="st4" d="M257.2,276.2H9.4c-4.8,0-8.7-2.9-8.7-6.5v-16.2c0-3.6,3.9-6.5,8.7-6.5h247.8c4.8,0,8.7,2.9,8.7,6.5v16.2
			C265.9,273.3,261.9,276.2,257.2,276.2z"/>
		<path class="st4" d="M567.5,276.2H319.7c-4.8,0-8.7-2.9-8.7-6.5v-16.2c0-3.6,3.9-6.5,8.7-6.5h247.8c4.8,0,8.7,2.9,8.7,6.5v16.2
			C576.2,273.3,572.2,276.2,567.5,276.2z"/>
		<path class="st3" d="M443.8,273.4H321.5c-4.2,0-7.6-3.4-7.6-7.6v-8.3c0-4.2,3.4-7.6,7.6-7.6h122.4c4.2,0,7.6,3.4,7.6,7.6v8.3
			C451.5,270,448,273.4,443.8,273.4z"/>
	</g>
</g>
<path class="st2" d="M-501.9,91.8c0-5.5-4.4-9.9-9.9-9.9s-9.9,4.4-9.9,9.9s4.4,9.9,9.9,9.9S-501.9,97.3-501.9,91.8L-501.9,91.8z
	 M-457.3,132c-4.7-2.8-10.8-1.2-13.5,3.5l0,0c-3.5,6.2-11.4,8.3-17.6,4.8c-2-1.1-3.7-2.8-4.8-4.8c-2.7-4.7-8.8-6.3-13.5-3.6l0,0l0,0
	c-4.7,2.7-6.3,8.7-3.7,13.5c9,15.7,29,21.1,44.7,12.1c5-2.9,9.2-7.1,12.1-12.1C-451,140.7-452.6,134.7-457.3,132L-457.3,132z
	 M-452.4,81.9c-5.5,0-9.9,4.4-9.9,9.9s4.4,9.9,9.9,9.9s9.9-4.4,9.9-9.9l0,0C-442.5,86.3-446.9,81.9-452.4,81.9z M-482.1,12.6
	c-54.7,0-99,44.3-99,99s44.3,99,99,99s99-44.3,99-99S-427.4,12.6-482.1,12.6L-482.1,12.6z M-482.1,190.8
	c-43.7,0.2-79.3-35.1-79.5-78.8c-0.2-32.5,19.6-61.9,49.8-73.9c-0.1,1.4-0.1,2.8,0,4.2c0,16.4,13.3,29.7,29.7,29.7l0,0
	c5.5,0.2,10-4.1,10.2-9.6s-4.1-10-9.6-10.2c-0.2,0-0.4,0-0.6,0c-5.5,0-9.9-4.4-9.9-9.9s4.4-9.9,9.9-9.9c43.7,0,79.2,35.5,79.2,79.2
	C-402.9,155.3-438.3,190.7-482.1,190.8z"/>
<path class="st3" d="M-211.9,89.4c0-5.5-4.4-9.9-9.9-9.9s-9.9,4.4-9.9,9.9s4.4,9.9,9.9,9.9S-211.9,94.8-211.9,89.4L-211.9,89.4z
	 M-167.4,129.6c-4.7-2.8-10.8-1.2-13.5,3.5l0,0l0,0c-3.5,6.2-11.4,8.3-17.6,4.8c-2-1.1-3.7-2.8-4.8-4.8c-2.7-4.7-8.8-6.3-13.5-3.6
	l0,0l0,0c-4.7,2.7-6.3,8.7-3.7,13.5c9,15.7,29,21.1,44.7,12.1c5-2.9,9.2-7.1,12.1-12.1C-161,138.2-162.7,132.3-167.4,129.6
	L-167.4,129.6z M-162.4,79.5c-5.5,0-9.9,4.4-9.9,9.9s4.4,9.9,9.9,9.9s9.9-4.4,9.9-9.9C-152.5,83.9-156.9,79.5-162.4,79.5
	L-162.4,79.5L-162.4,79.5z M-192.1,10.2c-54.7,0-99,44.3-99,99s44.3,99,99,99s99-44.3,99-99S-137.4,10.2-192.1,10.2z M-192.1,188.3
	c-43.7,0.2-79.3-35.1-79.5-78.9c-0.1-32.5,19.6-61.8,49.8-73.9c-0.1,1.4-0.1,2.8,0,4.2c0,16.4,13.3,29.7,29.7,29.7
	c5.5-0.2,9.8-4.7,9.6-10.2c-0.2-5.2-4.4-9.4-9.6-9.6c-5.5,0-9.9-4.4-9.9-9.9s4.4-9.9,9.9-9.9l0,0c43.7,0,79.2,35.5,79.2,79.2
	S-148.4,188.3-192.1,188.3z"/>
<g>
	<path class="st1" d="M-221.2-26.5h-87c-2.4,0-4.3-1.7-4.3-3.8v-16.1c0-2.1,1.9-3.8,4.3-3.8h87c2.4,0,4.3,1.7,4.3,3.8v16.1
		C-216.9-28.2-218.8-26.5-221.2-26.5z"/>
	<path class="st0" d="M-448.7-26.4h-168c-3.3,0-5.9-2.4-5.9-5.3v-13.2c0-2.9,2.6-5.3,5.9-5.3h168c3.3,0,5.9,2.4,5.9,5.3v13.2
		C-442.8-28.8-445.5-26.4-448.7-26.4z"/>
	<path class="st4" d="M-368.8-23.8h-247.8c-4.8,0-8.7-2.9-8.7-6.5v-16.2c0-3.6,3.9-6.5,8.7-6.5h247.8c4.8,0,8.7,2.9,8.7,6.5v16.2
		C-360.1-26.7-364.1-23.8-368.8-23.8z"/>
	<path class="st0" d="M-501.8-209.7c0-5.5-4.4-9.9-9.9-9.9s-9.9,4.4-9.9,9.9s4.4,9.9,9.9,9.9S-501.8-204.2-501.8-209.7L-501.8-209.7
		z M-457.3-169.5c-4.7-2.8-10.8-1.2-13.6,3.5l0,0c-3.5,6.2-11.4,8.3-17.6,4.8c-2-1.1-3.7-2.8-4.8-4.8c-2.7-4.7-8.8-6.3-13.5-3.6l0,0
		l0,0c-4.7,2.7-6.4,8.7-3.7,13.5c9,15.7,29.1,21.1,44.7,12.1c5-2.9,9.2-7,12.1-12.1C-450.9-160.8-452.6-166.8-457.3-169.5
		L-457.3-169.5z M-452.3-219.6c-5.5,0-9.9,4.4-9.9,9.9s4.4,9.9,9.9,9.9s9.9-4.4,9.9-9.9l0,0C-442.4-215.2-446.9-219.6-452.3-219.6
		L-452.3-219.6L-452.3-219.6z M-482-288.9c-54.7,0-99,44.3-99,99s44.3,99,99,99s99-44.3,99-99l0,0C-383-244.6-427.3-288.9-482-288.9
		z M-482-110.7c-43.7,0.2-79.4-35-79.6-78.7c-0.2-32.6,19.6-62,49.9-74c-0.1,1.4-0.1,2.8,0,4.2c0,16.4,13.3,29.7,29.7,29.7l0,0
		c5.5,0,9.9-4.4,9.9-9.9s-4.4-9.9-9.9-9.9l0,0c-5.5-0.2-9.8-4.7-9.6-10.2c0.2-5.2,4.4-9.4,9.6-9.6c43.7,0,79.2,35.5,79.2,79.2
		S-438.3-110.7-482-110.7z"/>
	<path class="st1" d="M-211.7-205.9c0-5.5-4.4-9.9-9.9-9.9s-9.9,4.4-9.9,9.9s4.4,9.9,9.9,9.9l0,0
		C-216.2-196-211.7-200.4-211.7-205.9L-211.7-205.9z M-167.2-165.7c-4.7-2.8-10.8-1.2-13.5,3.5l0,0l0,0c-3.5,6.2-11.4,8.3-17.6,4.8
		c-2-1.1-3.7-2.8-4.8-4.8c-2.8-4.7-8.8-6.3-13.5-3.5l0,0l0,0c-4.7,2.7-6.4,8.7-3.7,13.5c9,15.7,29.1,21.1,44.7,12.1
		c5-2.9,9.2-7,12.1-12.1C-160.8-157-162.5-163-167.2-165.7z M-162.2-215.8c-5.5,0-9.9,4.4-9.9,9.9s4.4,9.9,9.9,9.9s9.9-4.4,9.9-9.9
		l0,0C-152.4-211.3-156.8-215.8-162.2-215.8L-162.2-215.8z M-191.9-285c-54.7,0-99,44.3-99,99s44.3,99,99,99s99-44.3,99-99
		S-137.3-285-191.9-285L-191.9-285z M-191.9-106.9c-43.7,0.2-79.3-35.1-79.5-78.8c-0.1-32.5,19.6-61.8,49.8-73.9
		c-0.1,1.4-0.1,2.8,0,4.3c0,16.4,13.3,29.7,29.7,29.7c5.5,0,9.9-4.4,9.9-9.9s-4.4-9.9-9.9-9.9l0,0c-5.5-0.2-9.8-4.7-9.6-10.2
		c0.2-5.2,4.4-9.4,9.6-9.6c43.7,0,79.2,35.5,79.2,79.2S-148.2-106.9-191.9-106.9L-191.9-106.9z"/>
	<path class="st4" d="M-58.5-23.8h-247.8c-4.8,0-8.7-2.9-8.7-6.5v-16.2c0-3.6,3.9-6.5,8.7-6.5h247.8c4.8,0,8.7,2.9,8.7,6.5v16.2
		C-49.8-26.7-53.9-23.8-58.5-23.8z"/>
</g>
<path class="st4" d="M-368.8,276.2h-247.8c-4.8,0-8.7-2.9-8.7-6.5v-16.2c0-3.6,3.9-6.5,8.7-6.5h247.8c4.8,0,8.7,2.9,8.7,6.5v16.2
	C-360.1,273.3-364.1,276.2-368.8,276.2z"/>
<path class="st4" d="M-58.5,276.2h-247.8c-4.8,0-8.7-2.9-8.7-6.5v-16.2c0-3.6,3.9-6.5,8.7-6.5h247.8c4.8,0,8.7,2.9,8.7,6.5v16.2
	C-49.8,273.3-53.9,276.2-58.5,276.2z"/>
<path class="st2" d="M-561.4,273.6h-55.8c-2.9,0-5.3-2.4-5.3-5.3v-13c0-2.9,2.4-5.3,5.3-5.3h55.8c2.9,0,5.3,2.4,5.3,5.3v13
	C-556.1,271.2-558.5,273.6-561.4,273.6z"/>
<path class="st3" d="M-182.2,273.4h-122.4c-4.2,0-7.6-3.4-7.6-7.6v-8.3c0-4.2,3.4-7.6,7.6-7.6h122.4c4.2,0,7.6,3.4,7.6,7.6v8.3
	C-174.6,270-178,273.4-182.2,273.4z"/>
</svg>
