<?xml version="1.0" encoding="utf-8"?>
<!-- Generator: Adobe Illustrator 25.4.1, SVG Export Plug-In . SVG Version: 6.00 Build 0)  -->
<svg version="1.1" id="Layer_1" xmlns="http://www.w3.org/2000/svg" xmlns:xlink="http://www.w3.org/1999/xlink" x="0px" y="0px"
	 viewBox="0 0 16 16" style="enable-background:new 0 0 16 16;" xml:space="preserve">
<style type="text/css">
	.st0{fill-rule:evenodd;clip-rule:evenodd;fill:#E5720A;}
	.st1{fill:#E5720A;}
</style>
<path class="st0" d="M4,2c0.3,0,0.5,0.2,0.5,0.5v11C4.5,13.8,4.3,14,4,14s-0.5-0.2-0.5-0.5v-11C3.5,2.2,3.7,2,4,2z"/>
<path class="st0" d="M6.4,11.1c0.2,0.2,0.2,0.5,0,0.7l0,0l-2,2c-0.2,0.2-0.5,0.2-0.7,0l0,0l-2-2c-0.2-0.2-0.2-0.5,0-0.7
	s0.5-0.2,0.7,0L4,12.8l1.6-1.6C5.8,11,6.2,11,6.4,11.1L6.4,11.1z"/>
<path class="st1" d="M9.7,7l0.4-1.4h1.8L12.3,7h1.1l-1.8-5.3h-1.2L8.6,7H9.7z M11,2.7l0.7,2.2h-1.4L11,2.7L11,2.7z M9,14h4v-0.9
	h-2.6V13L13,9.3V8.7H9.1v0.9h2.5v0.1L9,13.3V14z"/>
</svg>
