<?xml version="1.0" encoding="utf-8"?>
<!-- Generator: Adobe Illustrator 25.4.1, SVG Export Plug-In . SVG Version: 6.00 Build 0)  -->
<svg version="1.1" id="Layer_1" xmlns="http://www.w3.org/2000/svg" xmlns:xlink="http://www.w3.org/1999/xlink" x="0px" y="0px"
	 viewBox="0 0 50 50" style="enable-background:new 0 0 50 50;" xml:space="preserve">
<style type="text/css">
	.st0{fill:#FBD962;}
</style>
<g>
	<path class="st0" d="M25,45.4C13.7,45.4,4.6,36.3,4.6,25S13.7,4.6,25,4.6c11.2,0,20.4,9.2,20.4,20.4S36.3,45.4,25,45.4z M25,8.6
		C16,8.6,8.6,16,8.6,25S16,41.4,25,41.4S41.4,34,41.4,25S34,8.6,25,8.6z"/>
</g>
<circle class="st0" cx="31.3" cy="20.6" r="2.1"/>
<circle class="st0" cx="18.7" cy="20.6" r="2.1"/>
<g>
	<path class="st0" d="M30.3,26.7c-0.5,0-1,0.2-1.4,0.6c-1.4,1.4-2.8,2.1-4.2,2c-2-0.1-3.5-1.9-3.5-1.9c-0.7-0.9-2-1-2.8-0.3
		c-0.9,0.7-1,1.9-0.3,2.8c0.1,0.1,2.5,3.2,6.4,3.4c2.5,0.1,5-0.9,7.3-3.2c0.8-0.8,0.8-2,0-2.8C31.3,26.9,30.8,26.7,30.3,26.7z"/>
</g>
<g>
	<path class="st0" d="M25.6,17.8h-0.1c-4.1-0.3-6.6-2.5-6.9-6.3C18.3,7.3,22,5.2,24,4.7c1.1-0.3,2.2,0.4,2.4,1.4
		C26.7,7.2,26,8.3,25,8.5c-0.3,0.1-2.6,0.8-2.4,2.7c0.1,1.2,0.5,2.4,3.2,2.6c1.1,0.1,1.9,1,1.9,2.1C27.5,17,26.7,17.8,25.6,17.8z"/>
</g>
</svg>
