<?xml version="1.0" encoding="utf-8"?>
<!-- Generator: Adobe Illustrator 25.4.1, SVG Export Plug-In . SVG Version: 6.00 Build 0)  -->
<svg version="1.1" id="Layer_1" xmlns="http://www.w3.org/2000/svg" xmlns:xlink="http://www.w3.org/1999/xlink" x="0px" y="0px"
	 viewBox="0 0 32 32" style="enable-background:new 0 0 32 32;" xml:space="preserve">
<style type="text/css">
	.st0{fill:#FBD962;}
	.st1{fill:#FFFFFF;}
	.st2{fill:#C4C4C4;stroke:#777777;stroke-width:0.5;stroke-miterlimit:10;}
	.st3{fill:#D6D6D6;stroke:#777777;stroke-width:0.5;stroke-miterlimit:10;}
</style>
<path class="st0" d="M24.4,25.7H6.3c-0.6,0-1-0.4-1-1V7.8c0-0.6,0.4-1,1-1h18.1c0.6,0,1,0.4,1,1v16.9C25.4,25.3,25,25.7,24.4,25.7z"
	/>
<path class="st1" d="M23.4,24.7h-16c-0.6,0-1-0.5-1-1V13.5c0-0.6,0.4-1,1-1h16c0.5,0,1,0.4,1,1v10.2C24.4,24.2,24,24.7,23.4,24.7z"
	/>
<path class="st2" d="M9.5,10.3H9.4c-0.5,0-1-0.4-1-1V5.9c0-0.5,0.5-1,1-1h0.1c0.6,0,1,0.5,1,1v3.5C10.5,9.9,10.1,10.3,9.5,10.3z"/>
<path class="st3" d="M21.6,10.3h-0.1c-0.5,0-1-0.4-1-1V5.9c0-0.5,0.5-1,1-1h0.1c0.5,0,1,0.5,1,1v3.5C22.6,9.9,22.1,10.3,21.6,10.3z"
	/>
<path class="st0" d="M14.2,16.3h-1.7c-0.2,0-0.4-0.2-0.4-0.4v-1.4c0-0.2,0.2-0.4,0.4-0.4h1.7c0.2,0,0.4,0.2,0.4,0.4v1.4
	C14.7,16.2,14.5,16.3,14.2,16.3z"/>
<path class="st0" d="M18.3,16.3h-1.7c-0.2,0-0.4-0.2-0.4-0.4v-1.4c0-0.2,0.2-0.4,0.4-0.4h1.7c0.2,0,0.4,0.2,0.4,0.4v1.4
	C18.8,16.2,18.6,16.3,18.3,16.3z"/>
<path class="st0" d="M22.4,16.4h-1.7c-0.2,0-0.4-0.2-0.4-0.4v-1.4c0-0.2,0.2-0.4,0.4-0.4h1.7c0.2,0,0.4,0.2,0.4,0.4V16
	C22.9,16.2,22.7,16.4,22.4,16.4z"/>
<path class="st0" d="M14.2,19.7h-1.7c-0.2,0-0.4-0.2-0.4-0.4v-1.4c0-0.2,0.2-0.4,0.4-0.4h1.7c0.2,0,0.4,0.2,0.4,0.4v1.4
	C14.7,19.5,14.5,19.7,14.2,19.7z"/>
<path class="st0" d="M10.1,19.7H8.4c-0.2,0-0.4-0.2-0.4-0.4v-1.4c0-0.2,0.2-0.4,0.4-0.4h1.7c0.2,0,0.4,0.2,0.4,0.4v1.4
	C10.5,19.5,10.4,19.7,10.1,19.7z"/>
<path class="st0" d="M18.3,19.7h-1.7c-0.2,0-0.4-0.2-0.4-0.4v-1.4c0-0.2,0.2-0.4,0.4-0.4h1.7c0.2,0,0.4,0.2,0.4,0.4v1.4
	C18.8,19.5,18.6,19.7,18.3,19.7z"/>
<path class="st0" d="M22.4,19.7h-1.7c-0.2,0-0.4-0.2-0.4-0.4v-1.4c0-0.2,0.2-0.4,0.4-0.4h1.7c0.2,0,0.4,0.2,0.4,0.4v1.4
	C22.9,19.5,22.7,19.7,22.4,19.7z"/>
<path class="st0" d="M14.2,23h-1.7c-0.2,0-0.4-0.2-0.4-0.4v-1.4c0-0.2,0.2-0.4,0.4-0.4h1.7c0.2,0,0.4,0.2,0.4,0.4v1.4
	C14.7,22.8,14.5,23,14.2,23z"/>
<path class="st0" d="M10.1,23H8.4C8.2,23,8,22.8,8,22.7v-1.4c0-0.2,0.2-0.4,0.4-0.4h1.7c0.2,0,0.4,0.2,0.4,0.4v1.4
	C10.5,22.8,10.4,23,10.1,23z"/>
<path class="st0" d="M18.3,23h-1.7c-0.2,0-0.4-0.2-0.4-0.4v-1.4c0-0.2,0.2-0.4,0.4-0.4h1.7c0.2,0,0.4,0.2,0.4,0.4v1.4
	C18.8,22.8,18.6,23,18.3,23z"/>
<path class="st0" d="M22.4,23h-1.7c-0.2,0-0.4-0.2-0.4-0.4v-1.4c0-0.2,0.2-0.4,0.4-0.4h1.7c0.2,0,0.4,0.2,0.4,0.4v1.4
	C22.9,22.8,22.7,23,22.4,23z"/>
</svg>
