<?xml version="1.0" encoding="utf-8"?>
<!-- Generator: Adobe Illustrator 25.4.1, SVG Export Plug-In . SVG Version: 6.00 Build 0)  -->
<svg version="1.1" id="Layer_1" xmlns="http://www.w3.org/2000/svg" xmlns:xlink="http://www.w3.org/1999/xlink" x="0px" y="0px"
	 viewBox="0 0 566.9 566.9" style="enable-background:new 0 0 566.9 566.9;" xml:space="preserve">
<style type="text/css">
	.st0{fill:#F9E000;}
	.st1{fill:#3C1E1E;}
</style>
<g>
	<path class="st0" d="M379.8,425.2H187.1c-25,0-45.4-20.3-45.4-45.4V187.1c0-25,20.3-45.4,45.4-45.4h192.8c25,0,45.4,20.3,45.4,45.4
		v192.8C425.2,404.9,404.9,425.2,379.8,425.2z"/>
	<path class="st1" d="M283.5,193.2c-55.9,0-101.3,36.1-101.3,80.5c0,27.6,17.4,51.9,44,66.4l-7.3,39.3c-0.4,2,1.8,3.4,3.5,2.3
		l43.5-28.7c0,0,11.6,1.2,17.7,1.2c55.9,0,101.3-36.1,101.3-80.5C384.8,229.3,339.4,193.2,283.5,193.2z"/>
	<g>
		<path class="st0" d="M242.4,251.3h-29.2c-2.7,0-5,2.2-5,5c0,2.8,2.2,5,5,5h9.5v35.2c0,1.3,0.5,2.5,1.4,3.4
			c0.9,0.9,2.1,1.4,3.4,1.4h1.1c1.3,0,2.5-0.5,3.4-1.4c0.9-0.9,1.4-2.2,1.4-3.5v-35.2h9c2.7,0,5-2.2,5-5
			C247.4,253.6,245.2,251.3,242.4,251.3z"/>
		<path class="st0" d="M310.8,292h-13.6v-36c0-3-2.4-5.4-5.4-5.4c-3,0-5.4,2.4-5.4,5.4v38.8c0,0.3,0,1.4,0,1.7c0,2.5,2,4.5,4.5,4.5
			h19.8c2.5,0,4.5-2,4.5-4.5C315.3,294.1,313.3,292,310.8,292z"/>
		<path class="st0" d="M354.3,293.7l-15.1-20l13.7-13.8c1.9-1.9,1.9-4.9,0-6.8c-1.9-1.9-4.9-1.9-6.7,0l-16.9,17.1V256
			c0-3-2.4-5.4-5.4-5.4c-3,0-5.4,2.4-5.4,5.4v40c0,3,2.4,5.4,5.4,5.4c3,0,5.4-2.4,5.4-5.4v-12.3l3.1-3.1l14.3,18.9
			c1.6,2.1,4.6,2.6,6.7,1C355.5,298.9,355.9,295.8,354.3,293.7z"/>
		<path class="st0" d="M283.2,295l-14.6-40.1c0,0,0,0,0,0c-0.9-2.4-3.6-4.2-6.8-4.2c-0.8,0-1.6,0.1-2.3,0.3c-0.7,0.2-1.4,0.5-2,0.9
			c-0.6,0.4-1.1,0.9-1.6,1.4c-0.3,0.4-0.5,0.8-0.7,1.2c-0.2,0.4-0.9,2.4-1.1,3.1c-0.1,0.2-0.2,0.4-0.2,0.7c-0.1,0.3-0.2,0.5-0.3,0.8
			c-0.1,0.3-0.2,0.6-0.3,0.9c-0.1,0.3-0.3,0.7-0.4,1c-0.1,0.4-0.3,0.8-0.4,1.1c-0.2,0.4-0.3,0.8-0.5,1.2c-0.2,0.4-0.3,0.9-0.5,1.3
			c-0.2,0.5-0.3,0.9-0.5,1.4c-0.2,0.5-0.4,1-0.5,1.4c-0.2,0.5-0.4,1-0.6,1.5c-0.2,0.5-0.4,1-0.6,1.5c-0.2,0.5-0.4,1-0.6,1.6
			c-0.2,0.5-0.4,1.1-0.6,1.6c-0.2,0.5-0.4,1.1-0.6,1.6c-0.2,0.5-0.4,1.1-0.6,1.6c-0.2,0.5-0.4,1.1-0.6,1.6c-0.2,0.5-0.4,1.1-0.6,1.6
			c-0.2,0.5-0.4,1-0.6,1.6c-0.2,0.5-0.4,1-0.6,1.5c-0.2,0.5-0.4,1-0.5,1.5c-0.2,0.5-0.3,0.9-0.5,1.4c-0.2,0.4-0.3,0.9-0.5,1.3
			c-0.2,0.4-0.3,0.8-0.5,1.3c-0.1,0.4-0.3,0.8-0.4,1.2c-0.1,0.4-0.3,0.7-0.4,1.1c-0.1,0.3-0.2,0.7-0.4,1c-0.1,0.3-0.2,0.6-0.3,0.9
			c-0.1,0.2-0.2,0.5-0.3,0.7c-0.1,0.2-0.2,0.4-0.2,0.6c-0.1,0.2-0.1,0.3-0.2,0.5c0,0.1-0.1,0.2-0.1,0.3c0,0.1,0,0.1-0.1,0.2
			c-0.9,2.5,0.4,5.3,3,6.2c2.5,0.9,5.3-0.4,6.2-3l2.5-7.1h19.9l2.5,7.1c0.9,2.5,3.6,3.9,6.2,3C282.7,300.3,284.1,297.5,283.2,295z
			 M254.9,282l6.7-19.2c0.1,0,0.1,0,0.2,0l6.7,19.2H254.9z"/>
	</g>
</g>
</svg>
