<?xml version="1.0" encoding="utf-8"?>
<!-- Generator: Adobe Illustrator 25.4.1, SVG Export Plug-In . SVG Version: 6.00 Build 0)  -->
<svg version="1.1" id="Layer_1" xmlns="http://www.w3.org/2000/svg" xmlns:xlink="http://www.w3.org/1999/xlink" x="0px" y="0px"
	 viewBox="0 0 100 100" style="enable-background:new 0 0 100 100;" xml:space="preserve">
<style type="text/css">
	.st0{fill:#FBD962;}
	.st1{fill:#FFFFFF;}
	.st2{font-family:'MyriadPro-Regular';}
	.st3{font-size:31.667px;}
</style>
<g>
	<path class="st0" d="M12.5,28.8C6.7,37.5,0.8,46.9,1.4,57.4C1.6,61,2.7,64.5,3.7,68c1,3.6,2.1,7.2,4,10.3c2,3.3,4.9,5.9,7.8,8.4
		c4,3.3,8.2,6.4,13.1,8.2c8.7,3.3,18.4,2.1,27.6,0.7c4.3-0.6,8.6-1.3,12.4-3.5c2.4-1.4,4.5-3.4,6.5-5.3c7.3-7.1,14.8-14.5,18.1-24.1
		c2.5-7.4,2.2-15.6,0-23.1s-6-14.4-10.6-20.8C79.5,14.7,76.2,10.7,72,8c-7.6-4.9-17.3-5.2-26.3-4.1c-2.3,0.3-4.7,0.7-6.8,1.7
		C37.1,6.4,35.5,7.7,34,9c-7.4,6.1-15.4,12.3-21.4,19.5"/>
</g>
<g>
	<g>
		<path d="M70.4,12.6c-8.1-5-16.8-10.3-26.6-10.4c-5.1-0.1-10,1.5-14.8,3.1C24.3,6.8,20,8.6,16.4,12c-3.4,3.2-6.3,7.1-8.9,11
			c-2.7,4.1-4.6,8.6-5.3,13.4c-0.8,5-0.5,10.1,0.2,15.1c0.6,4.9,1.3,9.9,2.8,14.7c1.5,4.8,4.3,8.3,7.8,11.7
			c3.3,3.3,6.7,6.5,10.4,9.4c7.5,6,16.1,9.9,25.8,9.7c9.9-0.2,19.3-4.1,27.5-9.4c7.7-5,15.6-11,18.7-19.9c1.5-4.3,2-9,1.9-13.5
			c-0.1-2.4-0.3-4.7-0.6-7.1c-0.3-2.4-0.6-4.8-1.5-7c-0.8-2.2-2.2-4-3.7-5.7c-1.6-1.9-3.3-3.8-4.9-5.6c-3.3-3.8-6.6-7.5-10.3-11
			c-1.8-1.7-3.6-3.3-5.6-4.8c-0.8-0.6-1.9,0.5-1.1,1.1C77,19.8,83,27.1,89.2,34.1c1.5,1.7,3.1,3.5,4.1,5.5c1,2.2,1.4,4.6,1.8,7
			c0.6,4.4,0.9,9,0.4,13.4c-0.5,4.4-1.8,8.7-4.2,12.4c-2.5,3.9-6.1,7-9.8,9.7c-7.4,5.6-15.6,10.3-24.7,12.3c-9.4,2-18.8,0.5-27-4.6
			c-3.8-2.4-7.2-5.2-10.4-8.2c-3.3-3.1-7-6.2-9.7-9.8c-2.8-3.8-3.7-8.5-4.5-13c-0.9-4.9-1.7-9.7-1.8-14.7c-0.1-4.8,0.4-9.6,2.2-14
			c1.7-4.4,4.5-8.3,7.5-12c2.8-3.6,6-6.9,10.1-9c4.2-2.1,9-3.5,13.5-4.6c4.8-1.2,9.6-1.1,14.3,0.2c4.5,1.2,8.7,3.3,12.7,5.6
			c2,1.2,4,2.4,6,3.6C70.4,14.5,71.2,13.2,70.4,12.6L70.4,12.6z"/>
	</g>
</g>
<text transform="matrix(1 0 0 1 12.3281 61.9014)" class="st1 st2 st3">ITALK</text>
</svg>
