<?xml version="1.0" encoding="utf-8"?>
<!-- Generator: Adobe Illustrator 25.4.1, SVG Export Plug-In . SVG Version: 6.00 Build 0)  -->
<svg version="1.1" id="Layer_1" xmlns="http://www.w3.org/2000/svg" xmlns:xlink="http://www.w3.org/1999/xlink" x="0px" y="0px"
	 viewBox="0 0 566.9 566.9" style="enable-background:new 0 0 566.9 566.9;" xml:space="preserve">
<style type="text/css">
	.st0{clip-path:url(#SVGID_00000100350515951641938590000006333477579267131036_);}
	.st1{fill:#49B649;}
</style>
<g>
	<defs>
		<path id="SVGID_1_" d="M379.4,425H187.8c-25.2,0-45.8-20.6-45.8-45.8V187.6c0-25.2,20.6-45.8,45.8-45.8h191.6
			c25.2,0,45.8,20.6,45.8,45.8v191.6C425.2,404.4,404.6,425,379.4,425z"/>
	</defs>
	<clipPath id="SVGID_00000156552475345826267120000000379794890456168626_">
		<use xlink:href="#SVGID_1_"  style="overflow:visible;"/>
	</clipPath>
	<g style="clip-path:url(#SVGID_00000156552475345826267120000000379794890456168626_);">
		<g>
			<path class="st1" d="M147.6,142c4.5-0.6,9-0.2,13.5-0.3c84.8,0,169.6,0,254.4,0c2.6-0.1,5.4,0.3,7.2,2.4
				c3.4,3.4,2.2,8.5,2.4,12.8c-0.1,86.6,0,173.3-0.1,259.9c0.2,5-4.7,8.9-9.6,8.2c-88.5,0-177,0-265.5,0c-4.4,0.2-8.6-3.7-8.3-8.2
				c0-89,0-178,0-266.9C141.5,146.3,144.1,143,147.6,142z M205.8,212.5c0.1,47.3,0,94.6,0,141.8c17.7,0.1,35.4,0.1,53.1,0
				c0.3-23.4-0.3-46.9,0.3-70.3c5.8,8.1,11.1,16.6,17,24.6c9.9,15.4,21.1,29.9,30.7,45.6c17.8,0.5,35.7,0,53.5,0.3
				c0.2-2.2,0.4-4.4,0.4-6.7c-0.3-45.1,0.2-90.3-0.2-135.4c-17.6-0.1-35.3,0-52.9-0.1c-0.1,23.6,0.1,47.2-0.2,70.7
				c-16.4-23.3-31.9-47.3-48.6-70.3C241.2,212,223.5,212.5,205.8,212.5z"/>
		</g>
	</g>
</g>
</svg>
