<?xml version="1.0" encoding="utf-8"?>
<!-- Generator: Adobe Illustrator 25.4.1, SVG Export Plug-In . SVG Version: 6.00 Build 0)  -->
<svg version="1.1" id="Layer_1" xmlns="http://www.w3.org/2000/svg" xmlns:xlink="http://www.w3.org/1999/xlink" x="0px" y="0px"
	 viewBox="0 0 50 50" style="enable-background:new 0 0 50 50;" xml:space="preserve">
<style type="text/css">
	.st0{fill:#FF5B5B;}
</style>
<g>
	<g>
		<path class="st0" d="M25.5,45.9c-11.3,0-20.4-9.2-20.4-20.4S14.2,5.1,25.5,5.1c11.2,0,20.4,9.2,20.4,20.4S36.8,45.9,25.5,45.9z
			 M25.5,9.1c-9,0-16.4,7.4-16.4,16.4c0,9,7.4,16.4,16.4,16.4s16.4-7.4,16.4-16.4C41.9,16.5,34.5,9.1,25.5,9.1z"/>
	</g>
	<circle class="st0" cx="31.8" cy="21.1" r="2.1"/>
	<circle class="st0" cx="19.2" cy="21.1" r="2.1"/>
	<g>
		<path class="st0" d="M30.8,33.9c-0.5,0-1-0.2-1.4-0.6c-1.4-1.4-2.8-2.1-4.2-2c-2,0.1-3.5,1.9-3.5,1.9c-0.7,0.9-2,1-2.8,0.3
			c-0.9-0.7-1-1.9-0.3-2.8c0.1-0.1,2.5-3.2,6.4-3.4c2.5-0.1,5,0.9,7.3,3.2c0.8,0.8,0.8,2,0,2.8C31.8,33.7,31.3,33.9,30.8,33.9z"/>
	</g>
	<g>
		<path class="st0" d="M26.1,18.3c0,0-0.1,0-0.1,0c-4.1-0.3-6.6-2.5-6.9-6.3c-0.3-4.2,3.4-6.3,5.4-6.8c1.1-0.3,2.2,0.4,2.4,1.4
			c0.3,1.1-0.4,2.2-1.4,2.4c-0.3,0.1-2.6,0.8-2.4,2.7c0.1,1.2,0.5,2.4,3.2,2.6c1.1,0.1,1.9,1,1.9,2.1C28,17.5,27.2,18.3,26.1,18.3z"
			/>
	</g>
</g>
</svg>
