<?xml version="1.0" encoding="utf-8"?>
<!-- Generator: Adobe Illustrator 25.4.1, SVG Export Plug-In . SVG Version: 6.00 Build 0)  -->
<svg version="1.1" id="Layer_1" xmlns="http://www.w3.org/2000/svg" xmlns:xlink="http://www.w3.org/1999/xlink" x="0px" y="0px"
	 viewBox="0 0 50 50" style="enable-background:new 0 0 50 50;" xml:space="preserve">
<style type="text/css">
	.st0{fill:#FBD962;}
	.st1{fill:#C54B3C;}
	.st2{fill:#FFFFFF;}
</style>
<circle class="st0" cx="31.3" cy="20.6" r="2.1"/>
<g>
	<path class="st1" d="M25.2,7.4c-0.1,0-0.1,0-0.2,0v36.8c0.1,0,0.1,0,0.2,0c10.2,0,18.4-8.2,18.4-18.4S35.4,7.4,25.2,7.4z"/>
</g>
<g>
	<path class="st1" d="M15.3,23.2c0-0.4-0.3-0.7-0.7-0.7c-0.4,0-0.7,0.3-0.7,0.7s0.3,0.7,0.7,0.7l0,0C15,23.9,15.3,23.6,15.3,23.2
		L15.3,23.2z M18.6,26.2c-0.3-0.2-0.8-0.1-1,0.2l0,0l0,0c-0.3,0.4-0.8,0.6-1.3,0.3c-0.1-0.1-0.3-0.2-0.3-0.3c-0.2-0.3-0.6-0.5-1-0.3
		l0,0c-0.3,0.2-0.5,0.6-0.3,1c0.7,1.2,2.1,1.6,3.3,0.9l0,0c0.4-0.2,0.7-0.5,0.9-0.9C19.1,26.8,19,26.4,18.6,26.2L18.6,26.2z
		 M19,22.5c-0.4,0-0.7,0.3-0.7,0.7s0.3,0.7,0.7,0.7s0.7-0.3,0.7-0.7l0,0C19.7,22.8,19.4,22.5,19,22.5L19,22.5z M16.8,17.3
		c-4,0-7.3,3.3-7.3,7.3s3.3,7.3,7.3,7.3s7.3-3.3,7.3-7.3S20.8,17.3,16.8,17.3z M16.8,30.5c-3.2,0-5.8-2.6-5.9-5.8
		c0-2.4,1.4-4.5,3.7-5.4c0,0.1,0,0.2,0,0.3c0,1.2,1,2.2,2.2,2.2l0,0c0.4,0,0.7-0.3,0.7-0.8l0,0c0-0.4-0.3-0.7-0.7-0.7
		c-0.4,0-0.7-0.3-0.7-0.7s0.3-0.7,0.7-0.7l0,0l0,0c3.2,0,5.8,2.6,5.8,5.8S20,30.5,16.8,30.5z"/>
</g>
<g>
	<path class="st1" d="M25,45.1c-11.1,0-20.1-9-20.1-20.1c0-11.1,9-20.1,20.1-20.1c11.1,0,20.1,9,20.1,20.1
		C45.1,36.1,36.1,45.1,25,45.1z M25,8.5C15.9,8.5,8.5,15.9,8.5,25c0,9.1,7.4,16.5,16.5,16.5S41.5,34.1,41.5,25
		C41.5,15.9,34.1,8.5,25,8.5z"/>
</g>
<g>
	<rect x="33.1" y="26.7" class="st2" width="1.2" height="1.2"/>
</g>
<g>
	<path class="st2" d="M32.5,22.1h-1.1c0,0,0-1.1,0.6-1.7c0,0,0.3-0.3,0.8-0.5c0,0,0.5-0.2,1.1-0.1c0,0,0.7,0,1.1,0.3
		c0.4,0.2,0.6,0.4,0.6,0.4s0.2,0.3,0.3,0.5c0,0,0.2,0.4,0.2,0.7c0,0,0.1,0.4,0,0.8c-0.1,0.2-0.1,0.4-0.2,0.7
		c-0.1,0.2-0.5,0.7-0.6,0.8c-0.1,0.1-0.4,0.4-0.4,0.4s-0.4,0.3-0.5,0.8c0,0-0.1,0.4,0,0.6h-1.1c0,0-0.1-1,0.3-1.6
		c0,0,0.6-0.7,0.9-0.9c0,0,0.3-0.3,0.4-0.6c0.1-0.2,0.3-0.9,0-1.5c0,0-0.3-0.5-1-0.5c0,0-0.6,0-0.9,0.3
		C32.5,21.5,32.5,21.8,32.5,22.1z"/>
</g>
</svg>
