<?xml version="1.0" encoding="utf-8"?>
<!-- Generator: Adobe Illustrator 25.4.1, SVG Export Plug-In . SVG Version: 6.00 Build 0)  -->
<svg version="1.1" id="Layer_1" xmlns="http://www.w3.org/2000/svg" xmlns:xlink="http://www.w3.org/1999/xlink" x="0px" y="0px"
	 viewBox="0 0 50 50" style="enable-background:new 0 0 50 50;" xml:space="preserve">
<style type="text/css">
	.st0{fill:#AAA464;}
	.st1{fill:#FFFFFF;}
</style>
<g>
	<g>
		<path class="st0" d="M25.2,7.6c-0.1,0-0.1,0-0.2,0v36.8c0.1,0,0.1,0,0.2,0c10.2,0,18.4-8.2,18.4-18.4S35.4,7.6,25.2,7.6z"/>
	</g>
	<g>
		<path class="st0" d="M15.4,23.4c0-0.4-0.3-0.7-0.7-0.7s-0.7,0.3-0.7,0.7c0,0.4,0.3,0.7,0.7,0.7l0,0C15,24.1,15.4,23.8,15.4,23.4
			L15.4,23.4z M18.6,26.3c-0.3-0.2-0.8-0.1-1,0.2l0,0l0,0c-0.3,0.4-0.8,0.6-1.3,0.3c-0.1-0.1-0.3-0.2-0.3-0.3
			c-0.2-0.3-0.6-0.5-1-0.3l0,0c-0.3,0.2-0.5,0.6-0.3,1c0.7,1.2,2.1,1.6,3.3,0.9l0,0c0.4-0.2,0.7-0.5,0.9-0.9
			C19.1,27,19,26.5,18.6,26.3L18.6,26.3z M19,22.6c-0.4,0-0.7,0.3-0.7,0.7c0,0.4,0.3,0.7,0.7,0.7s0.7-0.3,0.7-0.7l0,0
			C19.8,23,19.4,22.6,19,22.6L19,22.6z M16.8,17.5c-4,0-7.3,3.3-7.3,7.3s3.3,7.3,7.3,7.3s7.3-3.3,7.3-7.3S20.8,17.5,16.8,17.5z
			 M16.8,30.7c-3.2,0-5.8-2.6-5.9-5.8c0-2.4,1.4-4.5,3.7-5.4c0,0.1,0,0.2,0,0.3c0,1.2,1,2.2,2.2,2.2l0,0c0.4,0,0.7-0.3,0.7-0.7l0,0
			c0-0.4-0.3-0.7-0.7-0.7c-0.4,0-0.7-0.3-0.7-0.7c0-0.4,0.3-0.7,0.7-0.7l0,0l0,0c3.2,0,5.8,2.6,5.8,5.8S20,30.7,16.8,30.7z"/>
	</g>
	<g>
		<path class="st0" d="M25,45.2c-11.1,0-20.1-9-20.1-20.1c0-11.1,9-20.1,20.1-20.1c11.1,0,20.1,9,20.1,20.1
			C45.1,36.2,36.1,45.2,25,45.2z M25,8.7C16,8.7,8.6,16.1,8.6,25.2c0,9.1,7.4,16.4,16.4,16.4c9.1,0,16.4-7.4,16.4-16.4
			C41.5,16.1,34.1,8.7,25,8.7z"/>
	</g>
	<g>
		<g>
			<path class="st1" d="M27.4,22.5h3.4v0.5h-1.4v4.4h-0.6v-4.4h-1.4V22.5z"/>
		</g>
		<g>
			<path class="st1" d="M32.9,22.5l1.7,4.9h-0.6l-0.4-1.2h-2.1l-0.4,1.2h-0.6l1.7-4.9H32.9z M32.6,23l-0.9,2.7h1.8L32.6,23z"/>
		</g>
		<g>
			<path class="st1" d="M35.2,22.5h0.5v4.4h2.3v0.5h-2.9V22.5z"/>
		</g>
		<g>
			<path class="st1" d="M40.2,24.8l1.9,2.5h-0.6l-1.7-2.3h-0.6v2.3h-0.5v-4.9h0.5v2.1h0.6l1.5-2.1h0.6L40.2,24.8z"/>
		</g>
	</g>
</g>
</svg>
