<?xml version="1.0" encoding="utf-8"?>
<!-- Generator: Adobe Illustrator 25.4.1, SVG Export Plug-In . SVG Version: 6.00 Build 0)  -->
<svg version="1.1" id="Layer_1" xmlns="http://www.w3.org/2000/svg" xmlns:xlink="http://www.w3.org/1999/xlink" x="0px" y="0px"
	 viewBox="0 0 50 50" style="enable-background:new 0 0 50 50;" xml:space="preserve">
<style type="text/css">
	.st0{fill:#597479;}
	.st1{fill:#FFFFFF;}
</style>
<g>
	<path class="st0" d="M25.2,7.5c-0.1,0-0.1,0-0.2,0v36.7c0.1,0,0.1,0,0.2,0c10.1,0,18.3-8.2,18.3-18.3S35.3,7.5,25.2,7.5z"/>
</g>
<g>
	<g>
		<path class="st1" d="M28.9,29.4c-0.1,0-0.3,0-0.4-0.1c-0.3-0.2-0.3-0.6-0.1-0.9c2.6-3.2,0.1-6.3,0-6.4c-0.2-0.3-0.2-0.6,0.1-0.9
			c0.3-0.2,0.6-0.2,0.9,0.1c0,0,3.2,3.9,0,8C29.3,29.3,29.1,29.4,28.9,29.4z"/>
	</g>
	<g>
		<path class="st1" d="M32.1,30c-0.1,0-0.3,0-0.4-0.1c-0.3-0.2-0.3-0.6-0.1-0.9c3.1-3.7-0.1-8-0.1-8.1c-0.2-0.3-0.1-0.6,0.1-0.8
			c0.3-0.2,0.6-0.1,0.8,0.1c0,0.1,3.8,5.1,0.1,9.6C32.5,29.9,32.3,30,32.1,30z"/>
	</g>
	<g>
		<path class="st1" d="M35.1,30.9c-0.1,0-0.3,0-0.4-0.1c-0.3-0.2-0.3-0.6-0.1-0.9c3.8-4.8,0-9.6,0-9.7c-0.2-0.3-0.2-0.6,0.1-0.9
			c0.3-0.2,0.6-0.2,0.9,0.1c0,0.1,4.4,5.7,0,11.2C35.5,30.9,35.3,30.9,35.1,30.9z"/>
	</g>
</g>
<g>
	<path class="st0" d="M15.4,23.2c0-0.4-0.3-0.7-0.7-0.7s-0.7,0.3-0.7,0.7c0,0.4,0.3,0.7,0.7,0.7l0,0C15.1,23.9,15.4,23.6,15.4,23.2
		L15.4,23.2z M18.7,26.2c-0.3-0.2-0.8-0.1-1,0.2l0,0l0,0c-0.3,0.4-0.8,0.6-1.3,0.3c-0.1-0.1-0.3-0.2-0.3-0.3c-0.2-0.3-0.6-0.5-1-0.3
		l0,0c-0.3,0.2-0.5,0.6-0.3,1c0.7,1.2,2.1,1.6,3.3,0.9l0,0c0.4-0.2,0.7-0.5,0.9-0.9C19.1,26.8,19,26.3,18.7,26.2L18.7,26.2z
		 M19,22.5c-0.4,0-0.7,0.3-0.7,0.7c0,0.4,0.3,0.7,0.7,0.7c0.4,0,0.7-0.3,0.7-0.7l0,0C19.7,22.8,19.4,22.5,19,22.5L19,22.5z
		 M16.8,17.4c-4,0-7.3,3.3-7.3,7.3s3.3,7.3,7.3,7.3s7.3-3.3,7.3-7.3S20.9,17.4,16.8,17.4z M16.8,30.5c-3.2,0-5.8-2.6-5.8-5.8
		c0-2.4,1.4-4.5,3.7-5.4c0,0.1,0,0.2,0,0.3c0,1.2,1,2.2,2.2,2.2l0,0c0.4,0,0.7-0.3,0.7-0.7l0,0c0-0.4-0.3-0.7-0.7-0.7
		c-0.4,0-0.7-0.3-0.7-0.7c0-0.4,0.3-0.7,0.7-0.7l0,0l0,0c3.2,0,5.8,2.6,5.8,5.8S20,30.5,16.8,30.5z"/>
</g>
<g>
	<path class="st0" d="M25,45C14,45,5,36,5,25C5,14,14,5,25,5c11,0,20,9,20,20C45,36,36,45,25,45z M25,8.6C16,8.6,8.6,16,8.6,25
		S16,41.4,25,41.4S41.4,34,41.4,25S34,8.6,25,8.6z"/>
</g>
</svg>
