<?xml version="1.0" encoding="utf-8"?>
<!-- Generator: Adobe Illustrator 25.4.1, SVG Export Plug-In . SVG Version: 6.00 Build 0)  -->
<svg version="1.1" id="Layer_1" xmlns="http://www.w3.org/2000/svg" xmlns:xlink="http://www.w3.org/1999/xlink" x="0px" y="0px"
	 viewBox="0 0 100 100" style="enable-background:new 0 0 100 100;" xml:space="preserve">
<style type="text/css">
	.st0{fill-rule:evenodd;clip-rule:evenodd;fill:#909091;}
</style>
<path class="st0" d="M15.7,50c0,1.9,1.3,3.5,2.8,3.5h62.1c1.6,0,2.8-1.6,2.8-3.5c0-1.9-1.3-3.5-2.8-3.5H18.5
	C17,46.5,15.7,48.1,15.7,50z"/>
<path class="st0" d="M63.9,66.6c1.4,1.4,3.6,1.4,5,0c0,0,0,0,0,0L83,52.5c1.4-1.4,1.4-3.6,0-5c0,0,0,0,0,0L68.9,33.4
	c-1.4-1.4-3.6-1.4-5,0c-1.4,1.4-1.4,3.6,0,5L75.5,50L63.9,61.6C62.5,63,62.5,65.2,63.9,66.6C63.9,66.6,63.9,66.6,63.9,66.6z"/>
</svg>
