<svg xmlns="http://www.w3.org/2000/svg" viewBox="0 0 100.13 24.6"><defs><style>.cls-1{fill:#fc0;}</style></defs><g id="레이어_2" data-name="레이어 2"><g id="레이어_1-2" data-name="레이어 1"><path class="cls-1" d="M30.14,22.27H27.31v-.64h6.46v.64H31v2.2h-.84Zm.38-1.16A2,2,0,0,1,29.8,21a1.93,1.93,0,0,1-.62-.37,1.86,1.86,0,0,1-.43-.57,1.54,1.54,0,0,1-.16-.71,1.51,1.51,0,0,1,.16-.71,1.69,1.69,0,0,1,.42-.57,2,2,0,0,1,.62-.37,1.79,1.79,0,0,1,.73-.14,1.84,1.84,0,0,1,.72.14,1.87,1.87,0,0,1,1.05.94,1.71,1.71,0,0,1,.16.71,1.54,1.54,0,0,1-.16.71,1.86,1.86,0,0,1-.43.57,1.72,1.72,0,0,1-.61.37A2,2,0,0,1,30.52,21.11Zm0-2.9a1.18,1.18,0,0,0-.43.08,1.48,1.48,0,0,0-.36.23.93.93,0,0,0-.23.35,1.17,1.17,0,0,0,0,.9.89.89,0,0,0,.23.34,1.08,1.08,0,0,0,.36.24,1,1,0,0,0,.43.08,1,1,0,0,0,.42-.08,1.16,1.16,0,0,0,.6-.58,1.06,1.06,0,0,0,.09-.45,1.13,1.13,0,0,0-.09-.45,1.12,1.12,0,0,0-.25-.35,1.41,1.41,0,0,0-.35-.23A1.25,1.25,0,0,0,30.52,18.21Z"/><path class="cls-1" d="M45.1,21.89v.63l-.64.09-.74.07-.72,0c-.23,0-.43,0-.6,0H41.08V20h2.21V18.61H41.08V18h3v2.62H41.89v1.5h.83c.31,0,.67,0,1.09,0A12.08,12.08,0,0,0,45.1,21.89Zm.48,2.49V17.61h.79v6.77Z"/><path class="cls-1" d="M55.72,18a1.76,1.76,0,0,1,.76.16,1.82,1.82,0,0,1,.58.45,2.14,2.14,0,0,1,.38.68,2.57,2.57,0,0,1,.14.85,2.75,2.75,0,0,1-.14.88,2.37,2.37,0,0,1-.39.68,1.61,1.61,0,0,1-.59.44,1.51,1.51,0,0,1-.74.15,1.54,1.54,0,0,1-.74-.15,1.61,1.61,0,0,1-.59-.44A2,2,0,0,1,54,21a2.5,2.5,0,0,1-.14-.88,2.33,2.33,0,0,1,.14-.85,2,2,0,0,1,.39-.68,1.75,1.75,0,0,1,.59-.45A1.67,1.67,0,0,1,55.72,18Zm0,.69a.78.78,0,0,0-.42.11,1,1,0,0,0-.34.31,1.33,1.33,0,0,0-.23.46,1.79,1.79,0,0,0-.08.57A1.64,1.64,0,0,0,55,21.19a.92.92,0,0,0,1.52,0,1.93,1.93,0,0,0,0-2.1A.91.91,0,0,0,55.72,18.67Zm3.59,1.13h1v.65h-1v3.93h-.78V17.61h.78Z"/><path class="cls-1" d="M69.06,18a1.68,1.68,0,0,1,1.34.61,2,2,0,0,1,.38.68,2.57,2.57,0,0,1,.14.85,2.75,2.75,0,0,1-.14.88,2,2,0,0,1-.39.68,1.66,1.66,0,0,1-.58.44,1.58,1.58,0,0,1-.75.15,1.54,1.54,0,0,1-.74-.15,1.69,1.69,0,0,1-.59-.44,2,2,0,0,1-.39-.68,2.5,2.5,0,0,1-.14-.88,2.33,2.33,0,0,1,.14-.85,2,2,0,0,1,.39-.68,1.85,1.85,0,0,1,.59-.45A1.67,1.67,0,0,1,69.06,18Zm0,.69a.78.78,0,0,0-.42.11,1.12,1.12,0,0,0-.34.31,1.53,1.53,0,0,0-.23.46,1.79,1.79,0,0,0-.08.57,1.64,1.64,0,0,0,.31,1.07.93.93,0,0,0,.76.39.91.91,0,0,0,.76-.41,1.93,1.93,0,0,0,0-2.1A.9.9,0,0,0,69.06,18.67ZM72,24.38V17.61h.79v6.77Z"/><path class="cls-1" d="M82,17.8a1.86,1.86,0,0,1,.7.14,1.91,1.91,0,0,1,.58.39,1.71,1.71,0,0,1,.39,2,1.61,1.61,0,0,1-.39.57,1.88,1.88,0,0,1-.58.38,1.86,1.86,0,0,1-.7.14,1.83,1.83,0,0,1-.71-.14,1.88,1.88,0,0,1-.58-.38,1.61,1.61,0,0,1-.39-.57,1.74,1.74,0,0,1,.39-2,1.91,1.91,0,0,1,.58-.39A1.83,1.83,0,0,1,82,17.8Zm0,.68a1,1,0,0,0-.73.33,1.18,1.18,0,0,0,0,1.55,1,1,0,0,0,.73.32.93.93,0,0,0,.72-.32,1.18,1.18,0,0,0,0-1.55A.91.91,0,0,0,82,18.48Zm0,4h.8V24H86.1v.64H82Zm3.2-3.18V17.6h.78v5.14h-.78V19.91H84.09v-.65Z"/><path class="cls-1" d="M97.19,19.68h1.15V17.61h.79v6.77h-.79v-4H97.22a2.77,2.77,0,0,1-.19.79,1.85,1.85,0,0,1-.4.6,1.51,1.51,0,0,1-.57.4,1.44,1.44,0,0,1-.69.13,1.58,1.58,0,0,1-.75-.15,1.79,1.79,0,0,1-.59-.44,2.37,2.37,0,0,1-.39-.68,2.75,2.75,0,0,1-.14-.88,2.57,2.57,0,0,1,.14-.85,2.37,2.37,0,0,1,.39-.68,2,2,0,0,1,.59-.45,1.71,1.71,0,0,1,.75-.16,1.67,1.67,0,0,1,.67.13,1.9,1.9,0,0,1,.54.34A2,2,0,0,1,97,19,2.47,2.47,0,0,1,97.19,19.68Zm-1.82-1a.81.81,0,0,0-.43.11,1.24,1.24,0,0,0-.34.31,1.6,1.6,0,0,0-.3,1,1.59,1.59,0,0,0,.3,1.07,1,1,0,0,0,.77.39.94.94,0,0,0,.76-.41,1.93,1.93,0,0,0,0-2.1A.93.93,0,0,0,95.37,18.67Z"/><path class="cls-1" d="M31.07,14.44V3.37H26.76V1.85h10.4V3.37H32.81V14.44Z"/><path class="cls-1" d="M36.06,14.44,41,1.85h2.29l5,12.59H46.42l-1.23-3.12H39.07l-1.21,3.12Zm3.58-4.61h5L43.09,5.89l-.17-.46c-.07-.2-.15-.41-.24-.65s-.17-.49-.26-.74-.16-.48-.23-.68h-.11q-.13.36-.3.84l-.33.93c-.11.3-.2.55-.27.76Z"/><path class="cls-1" d="M50,14.44V1.85h1.74V12.91H58v1.53Z"/><path class="cls-1" d="M59.85,14.44V1.85h1.74V8.51L68,1.85h2.17l-4.79,5,4.95,7.56H68.25L64.16,8.13l-2.57,2.42v3.89Z"/><path class="cls-1" d="M72,14.44V1.85h1.75V14.44Z"/><path class="cls-1" d="M76.89,14.44V1.85h4.7A7.82,7.82,0,0,1,85,2.51,4.62,4.62,0,0,1,87.1,4.56a7.61,7.61,0,0,1,.74,3.58,7.58,7.58,0,0,1-.74,3.56A4.71,4.71,0,0,1,85,13.77a7.82,7.82,0,0,1-3.37.67Zm1.74-1.51h2.92a6.31,6.31,0,0,0,1.87-.26,3.67,3.67,0,0,0,1.41-.82,3.38,3.38,0,0,0,.89-1.42A6.16,6.16,0,0,0,86,8.35V8a6.28,6.28,0,0,0-.31-2.12,3.47,3.47,0,0,0-.88-1.42,3.56,3.56,0,0,0-1.4-.82,6.4,6.4,0,0,0-1.89-.26H78.63Z"/><path class="cls-1" d="M95,14.66a9,9,0,0,1-2-.21,5.21,5.21,0,0,1-1.68-.65,3.18,3.18,0,0,1-1.6-2.92,1.28,1.28,0,0,1,0-.19,1.09,1.09,0,0,0,0-.18h1.76a1.16,1.16,0,0,1,0,.17c0,.08,0,.15,0,.22a1.86,1.86,0,0,0,.44,1.24,2.53,2.53,0,0,0,1.22.76,5.69,5.69,0,0,0,1.77.25c.3,0,.61,0,.93-.05a4.91,4.91,0,0,0,.94-.2,3.42,3.42,0,0,0,.8-.36,1.93,1.93,0,0,0,.57-.57,1.59,1.59,0,0,0,.21-.84,1.5,1.5,0,0,0-.36-1,2.59,2.59,0,0,0-.94-.68,8.88,8.88,0,0,0-1.33-.48l-1.53-.41c-.53-.14-1-.29-1.53-.47a6.11,6.11,0,0,1-1.33-.66,3.06,3.06,0,0,1-.95-1A2.69,2.69,0,0,1,90,5a2.94,2.94,0,0,1,.33-1.41,2.82,2.82,0,0,1,.95-1.06,4.62,4.62,0,0,1,1.57-.66A9.17,9.17,0,0,1,95,1.63a7.76,7.76,0,0,1,1.85.21,4.64,4.64,0,0,1,1.5.65,3.13,3.13,0,0,1,1,1.09,3.28,3.28,0,0,1,.37,1.59v.22H98V5.12a1.61,1.61,0,0,0-.38-1.07,2.53,2.53,0,0,0-1.06-.68,4.7,4.7,0,0,0-1.51-.23,6.8,6.8,0,0,0-1.84.21,2.31,2.31,0,0,0-1.09.6,1.29,1.29,0,0,0-.35.89,1.35,1.35,0,0,0,.35,1,2.92,2.92,0,0,0,1,.63,11.62,11.62,0,0,0,1.34.45L96,7.29c.52.14,1,.3,1.52.48a6.43,6.43,0,0,1,1.34.66,2.87,2.87,0,0,1,.94,1,2.77,2.77,0,0,1,.35,1.46,3.4,3.4,0,0,1-.66,2.17,3.74,3.74,0,0,1-1.81,1.22A8.41,8.41,0,0,1,95,14.66Z"/><path class="cls-1" d="M12.41,7.55a.42.42,0,0,0-.44.39V8a1.9,1.9,0,0,1-1.59,1.77,1.53,1.53,0,0,1-.43,0,2,2,0,0,1-.76-.21A2.12,2.12,0,0,0,9.84,6a2.48,2.48,0,0,0-.26-.19,2.06,2.06,0,0,0-1-.31,2,2,0,0,0-1.15.26,2.1,2.1,0,0,0-.74,3,1.81,1.81,0,0,1-.61.14H5.87a1.87,1.87,0,0,1-1-.36,1.85,1.85,0,0,1-.78-1.37h0a.41.41,0,0,0-.82,0h0a3.31,3.31,0,0,0,2.51,3.26,11.71,11.71,0,0,1-1.52,3.26,7.7,7.7,0,0,0,.75.66H5l.52.39c1.18.85,2.32,1.76,3.42,2.71,0-.47,0-.95,0-1.43a19.2,19.2,0,0,1,.75-4.39A4,4,0,0,0,12.8,8V8h0A.42.42,0,0,0,12.41,7.55Z"/><path class="cls-1" d="M21.27,11.53a8.34,8.34,0,0,1-1.59-2,2.45,2.45,0,0,0,1.21-2.8h0a.31.31,0,0,0-.39-.2.3.3,0,0,0-.21.33h0A1.4,1.4,0,0,1,20,8a1.38,1.38,0,0,1-.66.44l-.15,0a1.49,1.49,0,0,1-.47,0,1.57,1.57,0,0,0-1.07-2,1.47,1.47,0,0,0-.88,0,1.59,1.59,0,0,0-.66.4l-.14.18a1.56,1.56,0,0,0,1.11,2.46,1.28,1.28,0,0,1-.51.29.85.85,0,0,1-.31.06,1.39,1.39,0,0,1-1.46-1s0,0,0-.05a.3.3,0,1,0-.58.17h0a3,3,0,0,0,2.88,2.09,15.11,15.11,0,0,1,1.33,3c.06.19.11.38.17.58l.19-.14.5-.39A8,8,0,0,0,21.27,11.53Z"/><path class="cls-1" d="M23.13,18.66a3.25,3.25,0,0,1-2.54-2.21l0-.08a.33.33,0,0,1,0-.18v0l.17-.16a10.28,10.28,0,0,0,3-4.2,10.41,10.41,0,0,0,.68-4.1,8.13,8.13,0,0,0-.12-1.2,8.4,8.4,0,0,0-.25-1.19A6.22,6.22,0,0,0,17.9,1l-.51,0a6.21,6.21,0,0,0-3.71,1.84A7.56,7.56,0,0,0,7.8,0H7.43A7.65,7.65,0,0,0,.48,5.23C.4,5.49.33,5.74.28,6A9.84,9.84,0,0,0,0,8.74a10.33,10.33,0,0,0,4.15,7.93l0,0,0,0h0l.42.29.15.11a57.7,57.7,0,0,1,5.62,4.53.59.59,0,0,0,.17.15A.83.83,0,0,0,11,22h.16a1.15,1.15,0,0,0,.32-.08.82.82,0,0,0,.2-.12c1.35-.93,2.71-1.81,4-2.6a.31.31,0,0,1,.12-.05.27.27,0,0,1,.18,0l0,0,0,0,.05,0a9.43,9.43,0,0,0,6.45,1.32l.56-.11a.85.85,0,0,0,.22-.06.9.9,0,0,0-.19-1.72Zm-6.31-.55a1.37,1.37,0,0,0-.2-.13,1.6,1.6,0,0,0-1.05-.18A1.82,1.82,0,0,0,15,18c-1.27.77-2.56,1.61-3.86,2.49A59.81,59.81,0,0,0,5.6,16l-.16-.11L5,15.64l-.09-.05A9.06,9.06,0,0,1,1.58,6.26a5.1,5.1,0,0,1,.17-.61A6.3,6.3,0,0,1,7.48,1.34h.31a6.25,6.25,0,0,1,5.27,3l.52.85.59-.81a4.84,4.84,0,0,1,3.38-2l.4,0a4.91,4.91,0,0,1,2.72.71,4.83,4.83,0,0,1,2.11,2.66,7.69,7.69,0,0,1,.21,1,9.6,9.6,0,0,1,.11,1,9.21,9.21,0,0,1-.59,3.57A9,9,0,0,1,19.93,15h-.05l-.39.43v0l-.12.22a1.64,1.64,0,0,0-.12.93l0,.13a.84.84,0,0,0,0,.17,4.53,4.53,0,0,0,1.89,2.44A8.07,8.07,0,0,1,16.82,18.11Z"/></g></g></svg>