<svg xmlns="http://www.w3.org/2000/svg" viewBox="0 0 133.21 36.2"><defs><style>.cls-1{fill:#fc0;}.cls-2{fill:#fff;}</style></defs><g id="레이어_2" data-name="레이어 2"><g id="레이어_1-2" data-name="레이어 1"><rect class="cls-1" width="133.21" height="36.2" rx="18.1"/><path class="cls-2" d="M36.29,21h0l.13-.1a0,0,0,0,1,0,0,9.62,9.62,0,0,0,3.71-7.61,8.36,8.36,0,0,0-.07-1.13,7.75,7.75,0,0,0-.19-1.09,5.56,5.56,0,0,0-5.33-4l-.45,0A5.5,5.5,0,0,0,30.2,9.18a6.91,6.91,0,0,0-5.68-3.52h-.34a6.91,6.91,0,0,0-6.49,4.51c-.08.22-.15.45-.21.67a9.49,9.49,0,0,0-.35,2.57,9.66,9.66,0,0,0,3.6,7.53.18.18,0,0,1,.07,0l.49.37.07.05a58.68,58.68,0,0,1,5.52,4.81.12.12,0,0,0,.05.05.17.17,0,0,0,.12,0h.07l.05,0c1.37-.87,2.77-1.71,4.19-2.5a1,1,0,0,1,.35-.1.91.91,0,0,1,.61.13.78.78,0,0,1,.15.1,8.74,8.74,0,0,0,5.91,1.44,4.85,4.85,0,0,0,.55-.09H39a.26.26,0,0,0,.15-.25.25.25,0,0,0-.19-.2A3.91,3.91,0,0,1,36,22a.29.29,0,0,1,0-.09s0-.06,0-.09a1,1,0,0,1,.09-.54A1.21,1.21,0,0,1,36.29,21Z"/><path class="cls-1" d="M28.7,12.93a.41.41,0,0,0-.44.39.15.15,0,0,1,0,.07,1.91,1.91,0,0,1-1.6,1.79,1.56,1.56,0,0,1-.43,0,2.05,2.05,0,0,1-.78-.21,2.13,2.13,0,0,0,.66-3.63,2.48,2.48,0,0,0-.26-.19,2.11,2.11,0,0,0-1-.32,2.16,2.16,0,0,0-1.16.27,2.13,2.13,0,0,0-.75,3,1.81,1.81,0,0,1-.62.14.81.81,0,0,1-.22,0,1.9,1.9,0,0,1-1-.36,1.93,1.93,0,0,1-.79-1.39h0a.42.42,0,0,0-.39-.36.43.43,0,0,0-.44.4h0A3.35,3.35,0,0,0,22,15.88a11.54,11.54,0,0,1-1.54,3.29,9.58,9.58,0,0,0,.76.67h0l.52.39q1.79,1.31,3.45,2.75c0-.48,0-1,0-1.46A20.12,20.12,0,0,1,26,17.1a4,4,0,0,0,3.11-3.71v0h0A.41.41,0,0,0,28.7,12.93Z"/><path class="cls-1" d="M38.55,16.58a9.44,9.44,0,0,1-1.77-2.18,2.7,2.7,0,0,0,1.32-3.08h0a.34.34,0,0,0-.43-.22.33.33,0,0,0-.23.36h0a1.53,1.53,0,0,1-.33,1.24,1.66,1.66,0,0,1-.72.49l-.18,0a1.46,1.46,0,0,1-.51,0,1.77,1.77,0,0,0,0-1.07,1.73,1.73,0,0,0-2.16-1.12,1.77,1.77,0,0,0-.72.45,1.4,1.4,0,0,0-.16.2,1.73,1.73,0,0,0-.23,1.52,1.71,1.71,0,0,0,1.47,1.18,1.51,1.51,0,0,1-.56.33,1.35,1.35,0,0,1-.34.06,1.54,1.54,0,0,1-1.62-1.07s0,0,0-.06a.36.36,0,0,0-.43-.22.35.35,0,0,0-.22.42h0v0a3.25,3.25,0,0,0,3.17,2.26,16,16,0,0,1,1.49,3.31c.07.21.13.42.19.63l.21-.15.55-.43A9,9,0,0,0,38.55,16.58Z"/><path class="cls-2" d="M46.08,28.21H43.26v-.64h6.45v.64H46.92v2.21h-.84Zm.38-1.16a2,2,0,0,1-.72-.14,1.88,1.88,0,0,1-.61-.37A1.72,1.72,0,0,1,44.7,26a1.51,1.51,0,0,1-.16-.71,1.67,1.67,0,0,1,.15-.71,1.86,1.86,0,0,1,.43-.57,2,2,0,0,1,.61-.37,2,2,0,0,1,1.46,0,1.75,1.75,0,0,1,.61.38,1.71,1.71,0,0,1,.43.56,1.58,1.58,0,0,1,.17.71,1.73,1.73,0,0,1-.16.72,1.82,1.82,0,0,1-.43.56,2,2,0,0,1-.61.38A2.26,2.26,0,0,1,46.46,27.05Zm0-2.9a1.07,1.07,0,0,0-.43.09,1.15,1.15,0,0,0-.35.22,1.21,1.21,0,0,0-.24.35,1.31,1.31,0,0,0,0,.9,1.21,1.21,0,0,0,.24.35,1,1,0,0,0,.35.23,1.06,1.06,0,0,0,.43.08,1,1,0,0,0,.42-.08,1.05,1.05,0,0,0,.36-.23,1,1,0,0,0,.25-.35,1.06,1.06,0,0,0,.09-.45,1.13,1.13,0,0,0-.09-.45,1.24,1.24,0,0,0-.25-.35,1.2,1.2,0,0,0-.36-.22A1,1,0,0,0,46.46,24.15Z"/><path class="cls-2" d="M61.05,27.83v.63l-.64.09-.74.07-.72,0a6,6,0,0,1-.6,0H57V25.91h2.22V24.56H57V23.9h3v2.63h-2.2V28h.84c.31,0,.67,0,1.09,0A12.36,12.36,0,0,0,61.05,27.83Zm.47,2.49V23.55h.79v6.77Z"/><path class="cls-2" d="M71.67,23.92a1.71,1.71,0,0,1,.75.16,1.75,1.75,0,0,1,.59.45,2.14,2.14,0,0,1,.38.68,2.61,2.61,0,0,1,.13.85,2.5,2.5,0,0,1-.14.88,2,2,0,0,1-.39.68,1.57,1.57,0,0,1-.58.44,1.67,1.67,0,0,1-.74.16,1.71,1.71,0,0,1-.75-.16,1.79,1.79,0,0,1-.59-.44,2.37,2.37,0,0,1-.39-.68,2.75,2.75,0,0,1-.14-.88,2.61,2.61,0,0,1,.14-.85,2.37,2.37,0,0,1,.39-.68,2,2,0,0,1,.59-.45A1.71,1.71,0,0,1,71.67,23.92Zm0,.69a.92.92,0,0,0-.43.11,1.24,1.24,0,0,0-.34.31,1.6,1.6,0,0,0-.3,1,1.59,1.59,0,0,0,.3,1.07,1,1,0,0,0,.77.39.94.94,0,0,0,.76-.41,1.93,1.93,0,0,0,0-2.1A.93.93,0,0,0,71.67,24.61Zm3.59,1.14h1v.64h-1v3.93h-.78V23.55h.78Z"/><path class="cls-2" d="M85,23.92a1.71,1.71,0,0,1,.75.16,1.75,1.75,0,0,1,.59.45,2.14,2.14,0,0,1,.38.68,2.61,2.61,0,0,1,.14.85,2.75,2.75,0,0,1-.14.88,2.37,2.37,0,0,1-.39.68,1.69,1.69,0,0,1-.59.44,1.79,1.79,0,0,1-1.48,0,1.61,1.61,0,0,1-.59-.44,2.18,2.18,0,0,1-.4-.68,2.75,2.75,0,0,1-.14-.88,2.61,2.61,0,0,1,.14-.85,2.18,2.18,0,0,1,.4-.68,1.75,1.75,0,0,1,.59-.45A1.64,1.64,0,0,1,85,23.92Zm0,.69a.88.88,0,0,0-.42.11,1.15,1.15,0,0,0-.35.31,1.51,1.51,0,0,0-.22.46,1.79,1.79,0,0,0-.08.57,1.7,1.7,0,0,0,.3,1.07,1,1,0,0,0,.77.39.92.92,0,0,0,.76-.41,1.93,1.93,0,0,0,0-2.1A.91.91,0,0,0,85,24.61Zm2.9,5.71V23.55h.78v6.77Z"/><path class="cls-2" d="M97.93,23.74a1.87,1.87,0,0,1,.71.14,2.11,2.11,0,0,1,.58.39,1.92,1.92,0,0,1,.39.57,1.58,1.58,0,0,1,.14.69,1.61,1.61,0,0,1-.14.69,1.92,1.92,0,0,1-.39.57,1.85,1.85,0,0,1-1.29.52,1.82,1.82,0,0,1-.7-.14,1.77,1.77,0,0,1-.58-.38,1.82,1.82,0,0,1-.54-1.26,1.58,1.58,0,0,1,.15-.69,1.61,1.61,0,0,1,.39-.57,2,2,0,0,1,.58-.39A1.82,1.82,0,0,1,97.93,23.74Zm0,.69a.92.92,0,0,0-.72.32,1.18,1.18,0,0,0,0,1.55,1,1,0,0,0,.72.32,1,1,0,0,0,.73-.32,1.18,1.18,0,0,0,0-1.55A.94.94,0,0,0,97.93,24.43Zm0,3.95h.79V29.9h3.36v.64H97.9Zm3.2-3.18V23.54h.78v5.15h-.78V25.85H100V25.2Z"/><path class="cls-2" d="M113.13,25.62h1.16V23.55h.78v6.77h-.78v-4h-1.13a2.24,2.24,0,0,1-.19.79,2,2,0,0,1-.39.61,1.61,1.61,0,0,1-.57.39,1.65,1.65,0,0,1-.7.14,1.76,1.76,0,0,1-1.33-.6,2,2,0,0,1-.39-.68,2.75,2.75,0,0,1-.14-.88,2.61,2.61,0,0,1,.14-.85,2,2,0,0,1,.39-.68,1.85,1.85,0,0,1,.59-.45,1.7,1.7,0,0,1,.74-.16,1.6,1.6,0,0,1,.67.13,1.67,1.67,0,0,1,.55.35,2.2,2.2,0,0,1,.39.54A2.56,2.56,0,0,1,113.13,25.62Zm-1.82-1a.88.88,0,0,0-.42.11,1.12,1.12,0,0,0-.34.31,1.53,1.53,0,0,0-.23.46,1.78,1.78,0,0,0-.07.57,1.59,1.59,0,0,0,.3,1.07.94.94,0,0,0,.76.39.91.91,0,0,0,.76-.41,1.93,1.93,0,0,0,0-2.1A.9.9,0,0,0,111.31,24.61Z"/><path class="cls-2" d="M47,20.38V9.32H42.71V7.79h10.4V9.32H48.76V20.38Z"/><path class="cls-2" d="M52,20.38,57,7.79h2.29l5,12.59H62.37l-1.23-3.12H55L53.8,20.38Zm3.57-4.61h5L59,11.83c0-.11-.09-.26-.16-.46s-.16-.41-.24-.65-.17-.48-.26-.73-.16-.48-.24-.69H58l-.29.84-.33.93-.28.76Z"/><path class="cls-2" d="M66,20.38V7.79h1.74V18.86H74v1.52Z"/><path class="cls-2" d="M75.8,20.38V7.79h1.74v6.66l6.4-6.66h2.17l-4.79,5,5,7.56H84.2l-4.09-6.31-2.57,2.42v3.89Z"/><path class="cls-2" d="M87.94,20.38V7.79h1.74V20.38Z"/><path class="cls-2" d="M92.84,20.38V7.79h4.69a7.84,7.84,0,0,1,3.38.66,4.67,4.67,0,0,1,2.14,2.05,7.63,7.63,0,0,1,.74,3.59,7.54,7.54,0,0,1-.74,3.55,4.71,4.71,0,0,1-2.14,2.07,7.69,7.69,0,0,1-3.38.67Zm1.74-1.51H97.5a6,6,0,0,0,1.87-.26,3.67,3.67,0,0,0,1.41-.82,3.48,3.48,0,0,0,.89-1.42,6.39,6.39,0,0,0,.3-2.08v-.37a6.56,6.56,0,0,0-.3-2.12,3.47,3.47,0,0,0-.88-1.42,3.56,3.56,0,0,0-1.4-.82A6.4,6.4,0,0,0,97.5,9.3H94.58Z"/><path class="cls-2" d="M110.93,20.6a9.77,9.77,0,0,1-2-.2,5.46,5.46,0,0,1-1.68-.66,3.39,3.39,0,0,1-1.16-1.16,3.33,3.33,0,0,1-.43-1.76,1.09,1.09,0,0,1,0-.18c0-.07,0-.13,0-.19h1.76a1.36,1.36,0,0,1,0,.18,1.62,1.62,0,0,0,0,.21,1.84,1.84,0,0,0,.44,1.24,2.57,2.57,0,0,0,1.22.77,6,6,0,0,0,1.77.24,7.65,7.65,0,0,0,.93-.05,5.68,5.68,0,0,0,.93-.19,3.76,3.76,0,0,0,.81-.37,1.73,1.73,0,0,0,.57-.57,1.55,1.55,0,0,0,.21-.83,1.51,1.51,0,0,0-.36-1,2.68,2.68,0,0,0-.94-.68,9.31,9.31,0,0,0-1.33-.48l-1.54-.41a15.92,15.92,0,0,1-1.53-.47,5.5,5.5,0,0,1-1.33-.66,3.14,3.14,0,0,1-.94-1,2.69,2.69,0,0,1-.36-1.43,3.08,3.08,0,0,1,.32-1.41,2.85,2.85,0,0,1,1-1.06,5.09,5.09,0,0,1,1.56-.66A9.26,9.26,0,0,1,111,7.57a7.19,7.19,0,0,1,1.84.22,4.78,4.78,0,0,1,1.51.64,3.13,3.13,0,0,1,1,1.09,3.28,3.28,0,0,1,.36,1.59v.22H114v-.27A1.53,1.53,0,0,0,113.6,10a2.34,2.34,0,0,0-1-.68A4.47,4.47,0,0,0,111,9.08a6.8,6.8,0,0,0-1.84.21,2.31,2.31,0,0,0-1.09.6,1.3,1.3,0,0,0-.36.89,1.36,1.36,0,0,0,.36,1,2.72,2.72,0,0,0,.94.63,9.54,9.54,0,0,0,1.34.45l1.54.41c.51.14,1,.3,1.52.48a6.69,6.69,0,0,1,1.34.66,3,3,0,0,1,.94,1,2.87,2.87,0,0,1,.35,1.46,3.38,3.38,0,0,1-.66,2.17,3.71,3.71,0,0,1-1.82,1.22A8.34,8.34,0,0,1,110.93,20.6Z"/></g></g></svg>