<svg xmlns="http://www.w3.org/2000/svg" viewBox="0 0 26.06 26.06"><defs><style>.cls-1{fill:#fc0;}.cls-2{fill:#fff;}</style></defs><g id="레이어_2" data-name="레이어 2"><g id="레이어_1-2" data-name="레이어 1"><rect class="cls-1" width="26.06" height="26.06" rx="1.24"/><path class="cls-2" d="M18.06,16.84h0l.1-.08h0A7.33,7.33,0,0,0,21,11a7.92,7.92,0,0,0-.05-.85,5.77,5.77,0,0,0-.15-.83,4.18,4.18,0,0,0-4-3h-.34a4.22,4.22,0,0,0-3,1.6,5.21,5.21,0,0,0-4.3-2.65H8.9A5.24,5.24,0,0,0,4,8.63a4.91,4.91,0,0,0-.15.51,7,7,0,0,0-.27,1.95,7.29,7.29,0,0,0,2.72,5.69l0,0,.38.29,0,0a45.09,45.09,0,0,1,4.17,3.64s0,0,0,0a.14.14,0,0,0,.09,0h0s0,0,0,0c1-.66,2.09-1.29,3.17-1.89a1.12,1.12,0,0,1,.26-.08.69.69,0,0,1,.47.11l.11.07a6.56,6.56,0,0,0,4.47,1.09l.42-.07h.06a.17.17,0,0,0,.11-.18.19.19,0,0,0-.14-.16,3,3,0,0,1-2.23-2.09.15.15,0,0,1,0-.07s0,0,0-.06a.79.79,0,0,1,.07-.41A.83.83,0,0,1,18.06,16.84Z"/><path class="cls-1" d="M12.32,10.72A.32.32,0,0,0,12,11v.05a1.45,1.45,0,0,1-1.21,1.36,1.83,1.83,0,0,1-.33,0,1.49,1.49,0,0,1-.59-.17,1.6,1.6,0,0,0,.5-2.74,1.33,1.33,0,0,0-.19-.14,1.52,1.52,0,0,0-.76-.24,1.63,1.63,0,0,0-.88.2,1.58,1.58,0,0,0-.82,1.32,1.52,1.52,0,0,0,.26,1,1.53,1.53,0,0,1-.48.11H7.32a1.46,1.46,0,0,1-.77-.27A1.44,1.44,0,0,1,6,10.43H6a.33.33,0,0,0-.3-.27.31.31,0,0,0-.33.3h0A2.54,2.54,0,0,0,7.23,13a8.47,8.47,0,0,1-1.16,2.49c.19.18.38.35.58.51h0c.13.09.27.19.39.29.9.65,1.77,1.35,2.61,2.08,0-.37,0-.73,0-1.1a14.67,14.67,0,0,1,.57-3.35,3.06,3.06,0,0,0,2.35-2.81h0A.31.31,0,0,0,12.32,10.72Z"/><path class="cls-1" d="M19.77,13.48a7.12,7.12,0,0,1-1.34-1.64,2.06,2.06,0,0,0,1-2.34h0a.25.25,0,0,0-.32-.16.24.24,0,0,0-.17.27h0a1.17,1.17,0,0,1-.25.94,1.34,1.34,0,0,1-.55.37L18,11a1,1,0,0,1-.39,0,1.25,1.25,0,0,0,0-.81,1.29,1.29,0,0,0-.91-.86,1.26,1.26,0,0,0-.72,0,1.35,1.35,0,0,0-.55.34l-.12.15a1.3,1.3,0,0,0,.94,2,1.12,1.12,0,0,1-.42.25l-.26.05a1.17,1.17,0,0,1-1.22-.81l0-.05a.25.25,0,0,0-.48.15h0a2.47,2.47,0,0,0,2.4,1.72,12.32,12.32,0,0,1,1.13,2.5c.05.16.1.31.14.47l.16-.11.41-.32A6.8,6.8,0,0,0,19.77,13.48Z"/></g></g></svg>