<svg xmlns="http://www.w3.org/2000/svg" viewBox="0 0 126.5 31.75"><defs><style>.cls-1{fill:#ffbd00;}</style></defs><g id="레이어_2" data-name="레이어 2"><g id="레이어_1-2" data-name="레이어 1"><path class="cls-1" d="M38.8,30.46a.57.57,0,0,1-.13.36.5.5,0,0,1-.39.15.45.45,0,0,1-.51-.51v-.41a.84.84,0,0,0-.07-.37q-.08-.15-.39-.15H36.14a.47.47,0,0,1-.38-.16.51.51,0,0,1-.13-.33.51.51,0,0,1,.51-.5h4.3a.47.47,0,0,1,.36.16.48.48,0,0,1,.13.34.62.62,0,0,1-.11.33.47.47,0,0,1-.38.16h-1.2c-.2,0-.33,0-.37.15a.84.84,0,0,0-.07.37ZM36.28,25.7a1.81,1.81,0,0,1,.27-1,1.94,1.94,0,0,1,.74-.68,2.15,2.15,0,0,1,2,0,1.87,1.87,0,0,1,.74.68,1.82,1.82,0,0,1,.28,1,1.85,1.85,0,0,1-.28,1,1.89,1.89,0,0,1-.74.69,2.22,2.22,0,0,1-2,0,2,2,0,0,1-.74-.69A1.84,1.84,0,0,1,36.28,25.7Zm1,0a.89.89,0,0,0,.3.7,1.06,1.06,0,0,0,1.41,0,.92.92,0,0,0,.29-.7A.9.9,0,0,0,39,25a1.09,1.09,0,0,0-1.41,0A.88.88,0,0,0,37.29,25.7Z"/><path class="cls-1" d="M54.35,24a.88.88,0,0,1,.63.22.79.79,0,0,1,.25.64v1.54A.72.72,0,0,1,55,27a.92.92,0,0,1-.62.22H53.17a.44.44,0,0,0-.42.19.74.74,0,0,0-.12.39v.09a1,1,0,0,0,.11.44c.07.15.24.22.49.22h1.66a.6.6,0,0,1,.38.13.48.48,0,0,1,.14.35.49.49,0,0,1-.14.36.55.55,0,0,1-.38.13H52.45a.82.82,0,0,1-.59-.24.81.81,0,0,1-.26-.62V27.17a.81.81,0,0,1,.27-.64,1,1,0,0,1,.66-.23h1.12a.47.47,0,0,0,.42-.18.65.65,0,0,0,.11-.38v-.15a.77.77,0,0,0-.11-.41.52.52,0,0,0-.48-.19H52.16a.48.48,0,0,1-.36-.13.44.44,0,0,1-.15-.35.46.46,0,0,1,.15-.36.53.53,0,0,1,.36-.13Zm2,1.94a.47.47,0,0,1,.15-.37.54.54,0,0,1,.38-.14.45.45,0,0,1,.43.22,1,1,0,0,1,.07.29v4.25a.55.55,0,0,1-.14.37.49.49,0,0,1-.36.15.5.5,0,0,1-.37-.15.52.52,0,0,1-.16-.37Z"/><path class="cls-1" d="M68.11,26.83a1.85,1.85,0,0,1,.28-1,1.92,1.92,0,0,1,.74-.67,2.11,2.11,0,0,1,1-.25,2.2,2.2,0,0,1,1,.25,2,2,0,0,1,.74.67,2,2,0,0,1,0,2,2,2,0,0,1-.74.69,2.19,2.19,0,0,1-1,.24,2.1,2.1,0,0,1-1-.24,2,2,0,0,1-.74-.69A1.85,1.85,0,0,1,68.11,26.83Zm1,0a.89.89,0,0,0,.3.7,1,1,0,0,0,1.4,0,.89.89,0,0,0,.29-.7.87.87,0,0,0-.29-.7,1.07,1.07,0,0,0-1.4,0A.88.88,0,0,0,69.13,26.83Zm4.08-1.62a.47.47,0,0,1,.15-.37.48.48,0,0,1,.37-.14.51.51,0,0,1,.4.14.62.62,0,0,1,.11.37v.89a.78.78,0,0,0,.07.35q.07.15.39.15h.52a.43.43,0,0,1,.38.16.51.51,0,0,1,.12.32c0,.31-.17.46-.5.46H74.7c-.19,0-.32,0-.37.13a.59.59,0,0,0-.09.34v1.53a.49.49,0,0,1-.15.36.44.44,0,0,1-.36.16.55.55,0,0,1-.52-.52Z"/><path class="cls-1" d="M85.77,26.82a1.82,1.82,0,0,1,.28-1,1.94,1.94,0,0,1,.74-.68,2.11,2.11,0,0,1,1-.24,2.18,2.18,0,0,1,1,.24,2,2,0,0,1,.74.68,1.81,1.81,0,0,1,.27,1,1.9,1.9,0,0,1-.27,1,1.94,1.94,0,0,1-.74.68,2.18,2.18,0,0,1-1,.24,2.11,2.11,0,0,1-1-.24,1.87,1.87,0,0,1-.74-.68A1.91,1.91,0,0,1,85.77,26.82Zm1,0a.89.89,0,0,0,.3.7,1,1,0,0,0,.7.27,1,1,0,0,0,.7-.27.89.89,0,0,0,.29-.7.87.87,0,0,0-.29-.7,1,1,0,0,0-.7-.26,1,1,0,0,0-.7.26A.88.88,0,0,0,86.79,26.82Zm4.1-1.58a.49.49,0,0,1,.14-.36.51.51,0,0,1,.38-.14c.23,0,.38.08.43.22a1.13,1.13,0,0,1,.08.28V29.5a.53.53,0,0,1-.15.37.49.49,0,0,1-.36.15.51.51,0,0,1-.37-.15.53.53,0,0,1-.15-.37Z"/><path class="cls-1" d="M102.67,25.09a1.85,1.85,0,0,1,.27-1,1.91,1.91,0,0,1,.74-.67,2.15,2.15,0,0,1,2,0,1.91,1.91,0,0,1,.74.67,1.91,1.91,0,0,1,0,2,1.94,1.94,0,0,1-.74.68,2.15,2.15,0,0,1-2,0,1.94,1.94,0,0,1-.74-.68A1.84,1.84,0,0,1,102.67,25.09Zm1,0a.89.89,0,0,0,.3.7,1,1,0,0,0,.7.27,1,1,0,0,0,.7-.27,1,1,0,0,0,0-1.41,1,1,0,0,0-.7-.26,1,1,0,0,0-.7.26A.9.9,0,0,0,103.68,25.09ZM105.11,29a.53.53,0,0,1,.14-.37.52.52,0,0,1,.36-.14.48.48,0,0,1,.51.51v1.09a1.08,1.08,0,0,0,.13.48.59.59,0,0,0,.56.24h1.88a.52.52,0,0,1,.36.13.44.44,0,0,1,.14.34.46.46,0,0,1-.14.36.52.52,0,0,1-.36.13h-2.75a.85.85,0,0,1-.59-.22.83.83,0,0,1-.24-.64Zm4.08-1.14a.5.5,0,0,1-.14.37.45.45,0,0,1-.35.15.52.52,0,0,1-.38-.15.55.55,0,0,1-.14-.37V26.07a.8.8,0,0,0-.06-.34c0-.09-.16-.13-.36-.13h-.49c-.32,0-.49-.16-.49-.46a.45.45,0,0,1,.13-.34.46.46,0,0,1,.36-.14h.49c.21,0,.33-.05.36-.14a.83.83,0,0,0,.06-.34v-.67a.94.94,0,0,1,.09-.29.46.46,0,0,1,.43-.22c.33,0,.49.17.49.51Z"/><path class="cls-1" d="M119.86,26.79a1.85,1.85,0,0,1,.28-1,2,2,0,0,1,.74-.68,2.22,2.22,0,0,1,2,0,2,2,0,0,1,.74.68,1.85,1.85,0,0,1,.27,1,1.89,1.89,0,0,1-.27,1,1.94,1.94,0,0,1-.74.68,2.15,2.15,0,0,1-2,0,1.94,1.94,0,0,1-.74-.68A1.9,1.9,0,0,1,119.86,26.79Zm1,0a.87.87,0,0,0,.3.69,1,1,0,0,0,.7.27,1,1,0,0,0,.7-.27.87.87,0,0,0,.3-.69.89.89,0,0,0-.3-.71,1,1,0,0,0-.7-.26,1,1,0,0,0-.7.26A.89.89,0,0,0,120.88,26.79Zm5.51,2.75a.48.48,0,0,1-.14.36.43.43,0,0,1-.35.16.49.49,0,0,1-.38-.16.52.52,0,0,1-.14-.36V27.77a.88.88,0,0,0-.06-.35c0-.08-.16-.13-.36-.13h-.49c-.33,0-.49-.15-.49-.46a.52.52,0,0,1,.12-.34.49.49,0,0,1,.37-.13H125c.21,0,.33-.05.36-.14a.86.86,0,0,0,.06-.34v-.67a.87.87,0,0,1,.09-.29c.06-.14.21-.21.43-.22s.49.17.49.51Z"/><path class="cls-1" d="M41.23,18.8a.6.6,0,0,1-.67-.67L40.36,5.6l-4.06,0a.72.72,0,0,1-.77-.77V3a.77.77,0,0,1,.21-.57.76.76,0,0,1,.56-.21l12.05,0a.77.77,0,0,1,.57.21.76.76,0,0,1,.21.56V4.77a.72.72,0,0,1-.78.78l-4.06,0-.22,12.53a.59.59,0,0,1-.67.67Z"/><path class="cls-1" d="M47.53,18.15c-.47-.16-.6-.49-.4-1l1.47-3.43c.5-1.2,1-2.42,1.49-3.65s1-2.46,1.5-3.68,1-2.37,1.47-3.48a5,5,0,0,1,.25-.54c.07-.13.22-.19.45-.19h2.49a.52.52,0,0,1,.48.19,2,2,0,0,1,.23.54c1,2.23,1.94,4.53,2.89,6.88l3,7.41c.21.5.08.83-.39,1l-2.09.6a.7.7,0,0,1-1-.4c-.25-.58-.5-1.17-.75-1.79s-.51-1.25-.76-1.92l-5.41,0-.74,1.93c-.25.62-.49,1.23-.75,1.82a.65.65,0,0,1-1,.4Zm9-6.85L55.12,7.59l-.67,1.86c-.22.61-.45,1.23-.69,1.85Z"/><path class="cls-1" d="M68.45,15.6a25.92,25.92,0,0,0,3-.12c1-.1,2-.23,2.92-.41.46-.09.71.07.77.47l.34,1.84a.7.7,0,0,1-.06.52.66.66,0,0,1-.41.23,30.27,30.27,0,0,1-4.19.69,38.13,38.13,0,0,1-4.5.18,1.4,1.4,0,0,1-1.56-1.53L64.55,2.84c0-.44.21-.66.64-.66H68a.57.57,0,0,1,.64.66Z"/><path class="cls-1" d="M78,18.8a.59.59,0,0,1-.66-.67L77.1,2.84a.58.58,0,0,1,.65-.66h2.79c.45,0,.66.22.64.66L81.1,8.92l5.63-6.81a2.63,2.63,0,0,1,.46-.44.44.44,0,0,1,.52,0L89.9,3.36a.62.62,0,0,1,.34.43.51.51,0,0,1-.16.41L85.25,9.46l5,7.23q.22.31.06.51a2.69,2.69,0,0,1-.46.4l-1.8,1.31a.55.55,0,0,1-.51,0,2,2,0,0,1-.42-.42l-4.5-6.16L81,14,81,18.13a.59.59,0,0,1-.66.67Z"/><path class="cls-1" d="M93.05,18.8a.59.59,0,0,1-.66-.67L92.12,2.84a.58.58,0,0,1,.65-.66h2.7a.57.57,0,0,1,.65.66l-.23,15.29a.59.59,0,0,1-.66.67Z"/><path class="cls-1" d="M98.82,3.55a1.36,1.36,0,0,1,.43-1.14A1.93,1.93,0,0,1,100.38,2a15.35,15.35,0,0,1,4.78.28,9.91,9.91,0,0,1,3.59,1.57A7.33,7.33,0,0,1,111,6.55a8.14,8.14,0,0,1,.79,3.64,9.92,9.92,0,0,1-.65,3.68,6.82,6.82,0,0,1-2.11,2.84,10.08,10.08,0,0,1-3.75,1.79,20.12,20.12,0,0,1-5.58.52.6.6,0,0,1-.66-.67Zm3.82,12.23a7.89,7.89,0,0,0,2.24-.39,4.81,4.81,0,0,0,1.73-1,4.33,4.33,0,0,0,1.11-1.62,5.92,5.92,0,0,0,.4-2.28,4.86,4.86,0,0,0-.37-1.94,4,4,0,0,0-1.06-1.51,4.93,4.93,0,0,0-1.71-1,7.12,7.12,0,0,0-2.3-.31Z"/><path class="cls-1" d="M114.47,14.58a.71.71,0,0,1,.42-.31.62.62,0,0,1,.51.11,9.12,9.12,0,0,0,2,1.09,7.22,7.22,0,0,0,2.52.46,3.9,3.9,0,0,0,2.07-.37,1.29,1.29,0,0,0,.75-1.07,1.16,1.16,0,0,0-.49-1.06,4.46,4.46,0,0,0-1.33-.6l-2.22-.62a12.94,12.94,0,0,1-2.15-.82,7.42,7.42,0,0,1-1.14-.7,5,5,0,0,1-1-.94,4.89,4.89,0,0,1-.63-1.2A4.74,4.74,0,0,1,113.58,7a4.75,4.75,0,0,1,1.76-3.79,6.08,6.08,0,0,1,2-1A9.25,9.25,0,0,1,120,1.85a12.87,12.87,0,0,1,3,.31,9.92,9.92,0,0,1,2.37.86,1.46,1.46,0,0,1,.47.4.55.55,0,0,1,0,.53l-.69,1.87a.63.63,0,0,1-.39.43.7.7,0,0,1-.58,0,9.76,9.76,0,0,0-1.92-.72A9.07,9.07,0,0,0,120,5.24a3.55,3.55,0,0,0-1.88.47,1.64,1.64,0,0,0-.8,1.31,1.27,1.27,0,0,0,.32,1.06,2.91,2.91,0,0,0,1,.69c.54.22,1.12.42,1.75.61s1.29.37,2,.54a6.53,6.53,0,0,1,3.11,1.67,3.76,3.76,0,0,1,1,2.93,4.07,4.07,0,0,1-.54,1.89,4.58,4.58,0,0,1-1.36,1.45,6.61,6.61,0,0,1-2,.93,9.47,9.47,0,0,1-2.63.29,10.49,10.49,0,0,1-3.36-.58,9.86,9.86,0,0,1-2.92-1.63.58.58,0,0,1-.13-.85Z"/><path class="cls-1" d="M31.36,6.71a0,0,0,0,0,0,0A9.51,9.51,0,0,0,22.28,0c-.34,0-.65,0-1,.05A9.36,9.36,0,0,0,16,2.4,9.36,9.36,0,0,0,10.65.05c-.32,0-.64,0-1,0A9.51,9.51,0,0,0,.62,6.68a0,0,0,0,0,0,0,13.3,13.3,0,0,0,5.27,15l.54.33c.22.11.42.24.63.37l0,0A78.37,78.37,0,0,1,16,28.72c1.11-.92,2.25-1.81,3.42-2.63,0,0,0,0,0,0a.55.55,0,0,1,.24-.18,1.06,1.06,0,0,1,.19-.06.82.82,0,0,1,.44,0l.06,0a.7.7,0,0,1,.19.13,7.32,7.32,0,0,0,4.94.76,2.83,2.83,0,0,0,.44-.11h0a0,0,0,0,0,0,0,.17.17,0,0,0,.13-.22.2.2,0,0,0-.19-.16h0a3.21,3.21,0,0,1-2.61-2.2s0,0,0,0v0a.84.84,0,0,1,.34-.79l.06-.05,1.2-.74.05,0a6.5,6.5,0,0,1,.63-.37l.54-.33a14.52,14.52,0,0,0,1.83-1.49,13.33,13.33,0,0,0,2.68-3.68,13.3,13.3,0,0,0,.76-9.81ZM13.11,5.89l.85-1a.4.4,0,0,1,.56,0l.08.06a.4.4,0,0,1,.05.56l-.86,1a.4.4,0,0,1-.56,0l-.07-.06A.4.4,0,0,1,13.11,5.89ZM10.05,3.77a.4.4,0,0,1,.4-.4h.1a.4.4,0,0,1,.4.4V5.1a.4.4,0,0,1-.4.4h-.1a.4.4,0,0,1-.4-.4ZM6.4,4.88l.07-.06a.4.4,0,0,1,.56,0l.86,1a.4.4,0,0,1,0,.56l-.07.06a.4.4,0,0,1-.56,0l-.86-1A.4.4,0,0,1,6.4,4.88Zm9.54,5.18v0a5.28,5.28,0,0,1-3.77,5.06A26,26,0,0,0,11.51,21a26.76,26.76,0,0,0,.17,2.85c-1.22-.84-2.47-1.67-3.74-2.44l-.07,0a7.76,7.76,0,0,0-.69-.4L7,20.79l-.21-.13a11.84,11.84,0,0,1-2-1.76,15,15,0,0,0,2.16-5A4.38,4.38,0,0,1,3.32,9.74h0a.55.55,0,0,1,.55-.55.54.54,0,0,1,.53.44h0a2.49,2.49,0,0,0,2.48,2.14,1.42,1.42,0,0,0,.29,0,2.45,2.45,0,0,0,.8-.23,2.73,2.73,0,0,1-.54-1.64A2.77,2.77,0,0,1,8.73,7.54a2.76,2.76,0,0,1,2.82-.1l.35.23a2.78,2.78,0,0,1-.59,4.77,2.5,2.5,0,0,0,1,.22,2,2,0,0,0,.55-.07,2.5,2.5,0,0,0,2-2.44v-.1a.55.55,0,0,1,.54-.55.55.55,0,0,1,.55.54Zm9.19-3.25.86-1a.4.4,0,0,1,.56,0l.07.07a.4.4,0,0,1,.05.56l-.86,1a.4.4,0,0,1-.56.05l-.07-.07A.4.4,0,0,1,25.13,6.81ZM22.07,4.69a.4.4,0,0,1,.4-.39h.1a.4.4,0,0,1,.4.39V6a.39.39,0,0,1-.4.39h-.1a.39.39,0,0,1-.4-.39ZM18.42,5.81l.08-.07a.4.4,0,0,1,.56,0l.85,1a.4.4,0,0,1-.05.56l-.07.07a.4.4,0,0,1-.56-.05l-.86-1A.4.4,0,0,1,18.42,5.81Zm9.67,12.08a11.63,11.63,0,0,1-1.25,1.45,13.64,13.64,0,0,1-1.6,1.3l-.24.15-.22.14a7.76,7.76,0,0,0-.69.4l-.06,0h0l-.56.34c-.21.13-.43.26-.63.4a.38.38,0,0,0-.13.09h0c-.06,0-.1.1-.15.14,0-.49,0-1-.09-1.49a23.8,23.8,0,0,0-1.13-5.25,4.8,4.8,0,0,1-3.89-4.26v0a.5.5,0,0,1,1-.09.28.28,0,0,0,0,.09,2.28,2.28,0,0,0,2,2,1.74,1.74,0,0,0,.51,0,2.21,2.21,0,0,0,.92-.29,2.54,2.54,0,0,1-1-4.29,1.76,1.76,0,0,1,.3-.24,2.51,2.51,0,0,1,1.18-.43,2.54,2.54,0,0,1,2.78,2.28A2.46,2.46,0,0,1,24.79,12a2.08,2.08,0,0,0,.75.14h.26A2.4,2.4,0,0,0,27,11.6a2.29,2.29,0,0,0,.87-1.69h0a.48.48,0,0,1,.44-.45.5.5,0,0,1,.55.45h0A4,4,0,0,1,26,14,13.77,13.77,0,0,0,28.09,17.89Z"/></g></g></svg>