<svg xmlns="http://www.w3.org/2000/svg" viewBox="0 0 24.44 21.96"><defs><style>.cls-1{fill:#fc0;}</style></defs><g id="레이어_2" data-name="레이어 2"><g id="레이어_1-2" data-name="레이어 1"><path class="cls-1" d="M12.41,7.55a.42.42,0,0,0-.44.39V8a1.9,1.9,0,0,1-1.59,1.77,1.53,1.53,0,0,1-.43,0,2,2,0,0,1-.76-.21A2.12,2.12,0,0,0,9.84,6a2.48,2.48,0,0,0-.26-.19,2.06,2.06,0,0,0-1-.31,2,2,0,0,0-1.15.26,2.1,2.1,0,0,0-.74,3,1.81,1.81,0,0,1-.61.14H5.87a1.87,1.87,0,0,1-1-.36,1.85,1.85,0,0,1-.78-1.37h0a.41.41,0,0,0-.82,0h0a3.31,3.31,0,0,0,2.51,3.26,11.71,11.71,0,0,1-1.52,3.26,7.7,7.7,0,0,0,.75.66H5l.52.39c1.18.85,2.32,1.76,3.42,2.71,0-.47,0-.95,0-1.43a19.2,19.2,0,0,1,.75-4.39A4,4,0,0,0,12.8,8V8h0A.42.42,0,0,0,12.41,7.55Z"/><path class="cls-1" d="M21.27,11.53a8.34,8.34,0,0,1-1.59-2,2.45,2.45,0,0,0,1.21-2.8h0a.31.31,0,0,0-.39-.2.3.3,0,0,0-.21.33h0A1.4,1.4,0,0,1,20,8a1.38,1.38,0,0,1-.66.44l-.15,0a1.49,1.49,0,0,1-.47,0,1.57,1.57,0,0,0-1.07-2,1.47,1.47,0,0,0-.88,0,1.59,1.59,0,0,0-.66.4l-.14.18a1.56,1.56,0,0,0,1.11,2.46,1.28,1.28,0,0,1-.51.29.85.85,0,0,1-.31.06,1.39,1.39,0,0,1-1.46-1s0,0,0-.05a.3.3,0,1,0-.58.17h0a3,3,0,0,0,2.88,2.09,15.11,15.11,0,0,1,1.33,3c.06.19.11.38.17.58l.19-.14.5-.39A8,8,0,0,0,21.27,11.53Z"/><path class="cls-1" d="M23.13,18.66a3.25,3.25,0,0,1-2.54-2.21l0-.08a.33.33,0,0,1,0-.18v0l.17-.16a10.28,10.28,0,0,0,3-4.2,10.41,10.41,0,0,0,.68-4.1,8.13,8.13,0,0,0-.12-1.2,8.4,8.4,0,0,0-.25-1.19A6.22,6.22,0,0,0,17.9,1l-.51,0a6.21,6.21,0,0,0-3.71,1.84A7.56,7.56,0,0,0,7.8,0H7.43A7.65,7.65,0,0,0,.48,5.23C.4,5.49.33,5.74.28,6A9.84,9.84,0,0,0,0,8.74a10.33,10.33,0,0,0,4.15,7.93l0,0,0,0h0l.42.29.15.11a57.7,57.7,0,0,1,5.62,4.53.59.59,0,0,0,.17.15A.83.83,0,0,0,11,22h.16a1.15,1.15,0,0,0,.32-.08.82.82,0,0,0,.2-.12c1.35-.93,2.71-1.81,4-2.6a.31.31,0,0,1,.12-.05.27.27,0,0,1,.18,0l0,0,0,0,.05,0a9.43,9.43,0,0,0,6.45,1.32l.56-.11a.85.85,0,0,0,.22-.06.9.9,0,0,0-.19-1.72Zm-6.31-.55a1.37,1.37,0,0,0-.2-.13,1.6,1.6,0,0,0-1.05-.18A1.82,1.82,0,0,0,15,18c-1.27.77-2.56,1.61-3.86,2.49A59.81,59.81,0,0,0,5.6,16l-.16-.11L5,15.64l-.09-.05A9.06,9.06,0,0,1,1.58,6.26a5.1,5.1,0,0,1,.17-.61A6.3,6.3,0,0,1,7.48,1.34h.31a6.25,6.25,0,0,1,5.27,3l.52.85.59-.81a4.84,4.84,0,0,1,3.38-2l.4,0a4.91,4.91,0,0,1,2.72.71,4.83,4.83,0,0,1,2.11,2.66,7.69,7.69,0,0,1,.21,1,9.6,9.6,0,0,1,.11,1,9.21,9.21,0,0,1-.59,3.57A9,9,0,0,1,19.93,15h-.05l-.39.43v0l-.12.22a1.64,1.64,0,0,0-.12.93l0,.13a.84.84,0,0,0,0,.17,4.53,4.53,0,0,0,1.89,2.44A8.07,8.07,0,0,1,16.82,18.11Z"/></g></g></svg>