<svg xmlns="http://www.w3.org/2000/svg" viewBox="0 0 26.06 26.06"><defs><style>.cls-1{fill:#fc0;}.cls-2{fill:#fff;}</style></defs><g id="레이어_2" data-name="레이어 2"><g id="레이어_1-2" data-name="레이어 1"><rect class="cls-1" width="26.06" height="26.06" rx="13.03"/><path class="cls-2" d="M18.06,17.59h0a.39.39,0,0,1,.1-.08h0a7.12,7.12,0,0,0,2.22-2.89A7.21,7.21,0,0,0,21,11.75a8.11,8.11,0,0,0-.05-.86,5.64,5.64,0,0,0-.15-.82,4.2,4.2,0,0,0-4-3.05l-.34,0a4.15,4.15,0,0,0-3,1.6A5.22,5.22,0,0,0,9.15,6H8.9A5.24,5.24,0,0,0,4,9.39a4.91,4.91,0,0,0-.15.51,6.94,6.94,0,0,0-.27,1.94,7.28,7.28,0,0,0,2.72,5.69l0,0,.38.28a.1.1,0,0,0,0,0,43.64,43.64,0,0,1,4.17,3.64l0,0a.14.14,0,0,0,.09,0h0l0,0c1-.66,2.09-1.29,3.17-1.89a.79.79,0,0,1,.26-.08.74.74,0,0,1,.47.1l.11.08a6.62,6.62,0,0,0,4.47,1.09l.42-.07h.06a.18.18,0,0,0,.11-.19.19.19,0,0,0-.14-.15,3,3,0,0,1-2.23-2.09.17.17,0,0,1,0-.07.64.64,0,0,1,0-.07.77.77,0,0,1,.07-.4A.73.73,0,0,1,18.06,17.59Z"/><path class="cls-1" d="M12.32,11.47a.32.32,0,0,0-.34.3v.06a1.45,1.45,0,0,1-1.21,1.35,1.22,1.22,0,0,1-.33,0A1.48,1.48,0,0,1,9.85,13a1.62,1.62,0,0,0,1.07-1.42,1.6,1.6,0,0,0-.57-1.32,1.39,1.39,0,0,0-.19-.15,1.74,1.74,0,0,0-.76-.24,1.56,1.56,0,0,0-.88.21,1.58,1.58,0,0,0-.82,1.31,1.55,1.55,0,0,0,.26,1,1.53,1.53,0,0,1-.48.11H7.32a1.47,1.47,0,0,1-.77-.28,1.44,1.44,0,0,1-.6-1H6a.34.34,0,0,0-.3-.28.32.32,0,0,0-.33.3h0a2.55,2.55,0,0,0,1.92,2.5A8.59,8.59,0,0,1,6.07,16.2c.19.18.38.35.58.51h0l.39.3c.9.65,1.77,1.35,2.61,2.07,0-.36,0-.73,0-1.1a14.76,14.76,0,0,1,.57-3.35,3.05,3.05,0,0,0,2.35-2.8v0h0A.31.31,0,0,0,12.32,11.47Z"/><path class="cls-1" d="M19.77,14.24a7.18,7.18,0,0,1-1.34-1.65,2,2,0,0,0,1-2.33h0a.25.25,0,0,0-.32-.17.24.24,0,0,0-.17.27h0a1.15,1.15,0,0,1-.25.94,1.17,1.17,0,0,1-.55.37.28.28,0,0,1-.13,0,1.28,1.28,0,0,1-.39,0,1.25,1.25,0,0,0,0-.81,1.29,1.29,0,0,0-.91-.86,1.26,1.26,0,0,0-.72,0,1.35,1.35,0,0,0-.55.34l-.12.15a1.27,1.27,0,0,0-.17,1.14,1.3,1.3,0,0,0,1.11.9,1.1,1.1,0,0,1-.42.24.85.85,0,0,1-.26.05,1.16,1.16,0,0,1-1.22-.81s0,0,0,0a.26.26,0,0,0-.32-.17.26.26,0,0,0-.16.32h0a2.46,2.46,0,0,0,2.4,1.71,12.57,12.57,0,0,1,1.13,2.5c.05.16.1.32.14.48l.16-.11.41-.33A6.77,6.77,0,0,0,19.77,14.24Z"/></g></g></svg>