<?xml version="1.0" encoding="utf-8"?>
<!-- Generator: Adobe Illustrator 25.4.1, SVG Export Plug-In . SVG Version: 6.00 Build 0)  -->
<svg version="1.1" id="Layer_1" xmlns="http://www.w3.org/2000/svg" xmlns:xlink="http://www.w3.org/1999/xlink" x="0px" y="0px"
	 viewBox="0 0 30 30" style="enable-background:new 0 0 30 30;" xml:space="preserve">
<style type="text/css">
	.st0{fill:#FBD962;}
</style>
<path class="st0" d="M25,8.6L25,8.6c-1.4,0-2.5-1.1-2.5-2.5V5.9c0-1.4,1.1-2.5,2.5-2.5l0,0c1.4,0,2.5,1.1,2.5,2.5v0.2
	C27.5,7.5,26.4,8.6,25,8.6z"/>
<path class="st0" d="M25,17.6L25,17.6c-1.4,0-2.5-1.1-2.5-2.5v-0.2c0-1.4,1.1-2.5,2.5-2.5l0,0c1.4,0,2.5,1.1,2.5,2.5v0.2
	C27.5,16.5,26.4,17.6,25,17.6z"/>
<path class="st0" d="M25,26.6L25,26.6c-1.4,0-2.5-1.1-2.5-2.5v-0.2c0-1.4,1.1-2.5,2.5-2.5l0,0c1.4,0,2.5,1.1,2.5,2.5v0.2
	C27.5,25.5,26.4,26.6,25,26.6z"/>
</svg>
