<?xml version="1.0" encoding="utf-8"?>
<!-- Generator: Adobe Illustrator 25.4.1, SVG Export Plug-In . SVG Version: 6.00 Build 0)  -->
<svg version="1.1" id="Layer_1" xmlns="http://www.w3.org/2000/svg" xmlns:xlink="http://www.w3.org/1999/xlink" x="0px" y="0px"
	 viewBox="0 0 766 144" style="enable-background:new 0 0 766 144;" xml:space="preserve">
<style type="text/css">
	.st0{fill:#001E36;}
	.st1{fill:#30A7FE;}
	.st2{fill:#30A7FD;}
	.st3{fill:#330000;}
	.st4{fill:#FD9900;}
	.st5{fill:#FE9900;}
	.st6{fill:#FFFFFF;}
	.st7{fill:#EAEBEC;}
	.st8{fill:#F0BE25;}
	.st9{fill:#E4A126;}
	.st10{fill:#0E0E0F;}
	.st11{fill:#E44D26;}
	.st12{fill:#F16529;}
	.st13{fill:#EBEBEB;}
	.st14{fill:#264DE4;}
	.st15{fill:#2965F1;}
</style>
<g>
	<path id="XMLID_1_" class="st0" d="M132.9,116.7H60.1c-4.6,0-8.4-3.7-8.4-8.4V35.6c0-4.6,3.7-8.4,8.4-8.4h72.8
		c4.6,0,8.4,3.7,8.4,8.4v72.8C141.2,112.9,137.5,116.7,132.9,116.7z"/>
	<g>
		<path class="st1" d="M77,80.3c0,0.3,0,0.5,0,0.7c0,4.4,0,8.9,0,13.3c0,0.8-0.1,0.9-0.9,0.9c-2.7,0-5.3,0-8,0
			c-0.7,0-0.8-0.1-0.8-0.8c0-15,0-30.1,0-45.1c0-0.7,0.1-0.8,0.8-0.8c4.2-0.1,8.3-0.2,12.5-0.2c3.3,0,6.6,0.2,9.8,1.2
			c4.2,1.4,7.4,3.9,9.2,8c1.2,2.6,1.5,5.4,1.3,8.3c-0.1,1.4-0.4,2.9-0.8,4.2c-1.6,4.6-4.9,7.5-9.5,9.1c-3.2,1.1-6.5,1.3-9.8,1.3
			c-1.1,0-2.1,0-3.2,0C77.4,80.3,77.2,80.3,77,80.3z M77,71.9c0.2,0,0.5,0,0.7,0c1.1,0,2.2,0,3.3,0c1.9,0,3.7-0.3,5.4-0.9
			c2-0.7,3.6-1.8,4.4-3.9c0.6-1.6,0.7-3.3,0.3-4.9c-0.7-2.8-2.6-4.3-5.3-5c-2.5-0.6-5-0.4-7.5-0.4c-0.4,0-0.8,0.1-1.2,0.1
			C77,62,77,66.9,77,71.9z"/>
		<path class="st2" d="M103.7,89.5c0-1.2,0-2.4,0-3.7c0-0.7,0.2-0.8,0.8-0.5c3.4,1.9,7.1,2.7,11,2.7c1.1,0,2.2-0.1,3.1-0.6
			c1.4-0.7,1.6-2.2,0.5-3.2c-0.5-0.5-1.1-0.9-1.7-1.2c-1.7-0.8-3.5-1.4-5.2-2.2c-1.5-0.7-3.1-1.6-4.4-2.6
			c-6.1-4.4-5.2-13.5,1.3-17.1c2.1-1.1,4.3-1.7,6.7-1.9c3.1-0.2,6.2,0,9.3,0.7c0.6,0.1,1.1,0.4,1.7,0.5c0.6,0.2,0.8,0.6,0.8,1.2
			c0,0.4,0,0.8,0,1.2c0,1.9,0,3.7,0,5.6c0,0.8-0.3,1-1,0.6c-3.2-1.5-6.6-2.1-10.1-1.9c-0.6,0-1.3,0.2-1.9,0.3
			c-1.6,0.5-2.1,2.3-0.8,3.5c0.6,0.6,1.4,1,2.1,1.4c1.1,0.5,2.4,0.9,3.5,1.5c1.8,0.8,3.6,1.6,5.3,2.6c6.5,3.7,6,12.5,1.2,16.4
			c-2,1.6-4.2,2.6-6.7,2.9c-4.7,0.7-9.3,0.5-13.8-1.1c-2-0.7-1.7-0.6-1.7-2.4C103.7,91.3,103.7,90.4,103.7,89.5z"/>
	</g>
</g>
<g>
	<path id="XMLID_5_" class="st3" d="M268.8,116.8H196c-4.6,0-8.4-3.7-8.4-8.4V35.7c0-4.6,3.7-8.4,8.4-8.4h72.8
		c4.6,0,8.4,3.7,8.4,8.4v72.8C277.1,113.1,273.4,116.8,268.8,116.8z"/>
	<g>
		<path class="st4" d="M216.6,84.4c-0.8,2.4-1.5,4.8-2.3,7.2c-0.3,1-0.6,2-0.9,3c-0.2,0.6-0.4,0.7-1,0.7c-2.5,0-5,0-7.5,0
			c-0.9,0-1-0.2-0.7-1.1c2.3-6.7,4.6-13.5,6.8-20.2c2.2-6.6,4.5-13.3,6.7-19.9c0.5-1.4,0.8-2.9,0.8-4.4c0-0.6,0.1-0.7,0.7-0.7
			c3.5,0,7.1,0,10.6,0c0.4,0,0.7,0.1,0.8,0.6c5.1,14.9,10.3,29.7,15.4,44.6c0.3,1,0.3,1.1-0.7,1.1c-2.8,0-5.5,0-8.3,0
			c-0.7,0-0.8-0.1-1-0.7c-1.1-3.3-2.2-6.6-3.3-9.9c-0.1-0.3-0.2-0.4-0.5-0.4c-5.1,0-10.2,0-15.3,0C216.8,84.4,216.7,84.4,216.6,84.4
			z M229.9,75.5c-1.9-6.1-3.7-12.2-5.5-18.2c-1.5,6.1-3.5,12.1-5.3,18.2C222.7,75.5,226.3,75.5,229.9,75.5z"/>
		<path class="st5" d="M260.2,77.8c0,5.5,0,11,0,16.5c0,0.2,0,0.3,0,0.5c0,0.3-0.2,0.5-0.6,0.5c-2.8,0-5.6,0-8.4,0
			c-0.4,0-0.6-0.2-0.6-0.6c0-0.1,0-0.3,0-0.4c0-11.1,0-22.1,0-33.2c0-0.8,0.1-0.9,0.9-0.9c2.6,0,5.3,0,7.9,0c0.6,0,0.8,0.1,0.8,0.8
			C260.2,66.6,260.2,72.2,260.2,77.8z"/>
		<path class="st4" d="M255.6,45.6c3.3,0.1,5.3,2.2,5.2,5.8c0,2.5-1.9,5.5-5.7,5.2c-2.7-0.2-5-2.2-5-5.7
			C250.2,47.8,252.6,45.5,255.6,45.6z"/>
	</g>
</g>
<g>
	<path id="path118_00000000936486148874110540000000324274588535905205_" class="st6" d="M620.2,35.1l0,1.1c0,0.6,1.7,20.3,3.8,43.9
		l3.8,42.8l17.2,4.8c9.5,2.6,17.4,4.8,17.6,4.8c0.2,0,8.3-2.1,17.9-4.8c15.4-4.3,17.4-4.9,17.5-5.4c0.2-0.7,7.7-85.6,7.7-86.5l0-0.7
		h-42.8H620.2z"/>
	<path id="path88_00000004528892365046728720000005229999074550066107_" class="st7" d="M645.2,127.9l-17.3-4.8l-0.2-1.3
		c-0.2-1.1-7.7-85.1-7.7-86.2c0-0.4,4.4-0.4,43.1-0.4c40.8,0,43.1,0,43.1,0.5c0,2.1-7.8,87.2-8,87.3c-0.2,0.2-33.8,9.6-34.9,9.7
		C662.8,132.7,654.7,130.5,645.2,127.9L645.2,127.9z M673.9,110.7c5.8-1.6,10.7-3,10.8-3.1c0.1-0.1,0.8-7,1.5-15.4
		c0.7-8.3,1.4-15.7,1.5-16.4l0.2-1.2h-12.6h-12.6V80v5.3h6.8h6.8l-0.1,0.7c-0.1,0.4-0.4,3.4-0.6,6.8c-0.3,3.6-0.6,6.3-0.8,6.5
		c-0.2,0.2-3,1-6.2,1.9l-5.8,1.6v5.4c0,3.7,0.1,5.4,0.3,5.4C663.1,113.7,668,112.4,673.9,110.7L673.9,110.7z M687.7,67.9
		c-0.2-1.4-1.9-20.4-1.9-21.1c0-0.4-1-0.5-11.4-0.5h-11.4v5.6v5.6l5.1,0.2c2.8,0.1,5.8,0.3,6.6,0.4l1.5,0.2l0.4,4.4
		c0.2,2.4,0.4,4.9,0.5,5.5l0.2,1.1h5.3h5.3L687.7,67.9z"/>
	<path id="path80_00000111886672696260551240000008489958129252041371_" class="st8" d="M645,127.6l-17.2-4.8L624,80
		c-2.1-23.5-3.8-43.3-3.8-43.9l0-1.1h42.8h42.8l0,0.7c0,0.9-7.5,85.8-7.7,86.5c-0.1,0.5-2.2,1.2-17.5,5.4
		c-9.6,2.7-17.6,4.8-17.9,4.8S654.5,130.2,645,127.6L645,127.6z M673.9,110.9c5.9-1.7,10.9-3.1,11-3.3c0.1-0.2,0.8-7.4,1.6-16.1
		s1.5-16.1,1.5-16.3c0.1-0.5-0.9-0.5-18.3-0.5h-18.5l0.8-8.3c0.4-4.6,0.8-8.3,0.8-8.3c0,0,2.7-0.1,6-0.2c5.4-0.1,16.6,0.3,16.9,0.7
		c0.1,0.1,1.1,9.1,1.1,10.4c0,0.6,0.1,0.6,5.6,0.6h5.6l-0.1-1.2c-0.1-0.7-0.5-5.9-1.1-11.6l-0.9-10.4l-21.6-0.1
		c-17.2-0.1-21.6,0-21.6,0.3c0,0.2-0.1,1.5-0.3,2.8c-0.4,3.3-3.2,34.9-3.2,35.7v0.7h18.4H676l-0.2,1.1c-0.1,0.6-0.4,3.6-0.6,6.7
		c-0.3,3.1-0.6,5.7-0.7,5.8c-0.3,0.3-11.1,3.1-11.8,3.1c-0.3,0-3.1-0.7-6.2-1.5l-5.6-1.5l-0.2-2.4c-0.1-1.3-0.3-3.2-0.4-4.2
		l-0.2-1.8h-5.5h-5.5l0,1.1c0,2,1.3,15.7,1.5,15.9c0.2,0.2,21.2,6.1,21.9,6.1C662.9,113.9,667.9,112.6,673.9,110.9L673.9,110.9z"/>
	<path id="path78_00000065066922820307315390000007921564296775514253_" class="st9" d="M645,127.6l-17.2-4.8L624,80
		c-2.1-23.5-3.8-43.3-3.8-43.9l0-1.1h42.8h42.8l0,0.7c0,0.9-7.5,85.8-7.7,86.5c-0.1,0.5-2.2,1.2-17.5,5.4
		c-9.6,2.7-17.6,4.8-17.9,4.8S654.5,130.2,645,127.6L645,127.6z M677.1,121.1c7.6-2.1,13.9-3.9,14.1-4.1c0.3-0.3,6.8-71.8,6.8-74.2
		l0-0.8h-17.5h-17.5v2v2h-10.1c-7.9,0-10.1,0.1-10.1,0.4c0,0.2-0.1,1.5-0.3,2.8c-0.4,3.3-3.2,34.9-3.2,35.7v0.7h11.8h11.8V94
		c0,6.5-0.1,8.4-0.4,8.4c-0.2,0-2.9-0.7-6-1.5l-5.6-1.5l-0.2-2.4c-0.1-1.3-0.3-3.2-0.4-4.2l-0.2-1.8h-5.5h-5.5l0,1.1
		c0,3.1,1.4,15.8,1.7,15.9c0.2,0.1,5.2,1.6,11.2,3.2l10.8,3v5.4c0,3,0.1,5.4,0.2,5.4S669.5,123.2,677.1,121.1L677.1,121.1z
		 M652,66.4c0.4-4.5,0.8-8.3,0.9-8.3c0.1-0.1,2.4-0.2,5.1-0.3l5-0.1v8.5v8.5h-5.9h-5.9L652,66.4z"/>
	<path id="path76_00000129892698140748726090000010212942629608424116_" class="st10" d="M647.3,24.8v-2.7h3.9h3.9v-5.3v-5.3h2.7
		h2.7v8.1v8.1H654h-6.6V24.8z M663.2,25.4v-2.2h3.6c2,0,3.6-0.1,3.6-0.2s-1.6-1.9-3.6-4.1l-3.6-3.9v-1.8v-1.8h7.5h7.5v2.2v2.2
		l-3.5,0.1l-3.5,0.1l3.7,4l3.7,4v1.9v1.9h-7.7h-7.7V25.4z"/>
</g>
<g>
	<path d="M337.5,10.6h5.5v5.5h5.1v-5.5h5.5v16.6h-5.5v-5.5h-5.1v5.5h-5.6 M361.1,16.1h-4.9v-5.5h15.4v5.5h-4.9v11.1h-5.5 M374,10.6
		h5.8l3.6,5.9l3.6-5.9h5.8v16.6h-5.5v-8.2l-3.9,6l-3.9-6v8.2H374 M395.5,10.6h5.5v11.1h7.9v5.5h-13.4"/>
	<path class="st11" d="M337.4,124.1l-8-89.3h87.4l-8,89.2l-35.8,9.9"/>
	<path class="st12" d="M373.1,126.4V42.1h35.7l-6.8,76.2"/>
	<path class="st13" d="M345.6,53h27.5V64h-15.5l1,11.2h14.5v10.9h-24.5 M349.1,91.6h11l0.8,8.7l12.2,3.3v11.4l-22.5-6.3"/>
	<path class="st6" d="M400.5,53h-27.4V64h26.4 M398.5,75.2h-25.4v10.9h13.5l-1.3,14.2l-12.2,3.3V115l22.4-6.2"/>
</g>
<g id="layer1_00000176762085522061613340000002988968069165798023_" transform="translate(-193.633,-276.3622)">
	<g id="g3013_00000047039727865555645050000015659467104399852713_" transform="translate(119,276.3622)">
		<polygon id="polygon2989_00000168087092658988817600000015432336284947721884_" class="st14" points="637.7,35.1 629.8,123 
			594.6,132.7 559.4,123 551.6,35.1 		"/>
		<polygon id="polygon2991_00000113337724096331147870000005954624791941137567_" class="st15" points="623.1,117.4 629.8,42.3 
			594.6,42.3 594.6,125.3 		"/>
		<polygon id="polygon2993_00000036946386087440547950000001581160753961015442_" class="st13" points="569.5,74.9 570.5,85.7 
			594.6,85.7 594.6,74.9 		"/>
		<polygon id="polygon2995_00000092440218173708172680000011549785461591784125_" class="st13" points="594.6,53.1 594.6,53.1 
			567.6,53.1 568.6,63.9 594.6,63.9 		"/>
		<polygon id="polygon2997_00000088813658680161300520000014742574116480543117_" class="st13" points="594.6,114.1 594.6,102.9 
			594.6,102.9 582.6,99.7 581.8,91.1 576,91.1 571,91.1 572.5,108 594.6,114.1 		"/>
		<path id="path2999_00000162343950940901652880000007168974156828090270_" d="M571.8,11.3h13.1v5.5h-7.6v5.5h7.6v5.5h-13.1V11.3z"
			/>
		<path id="path3001_00000086687262456186964960000006206834642215509154_" d="M587.5,11.3h13.1V16H593v0.9h7.6v10.9h-13.1v-5h7.6
			v-0.9h-7.6V11.3z"/>
		<path id="path3003_00000038373577179764815820000014815886626721213578_" d="M603.2,11.3h13.1V16h-7.6v0.9h7.6v10.9h-13.1v-5h7.6
			v-0.9h-7.6V11.3z"/>
		<polygon id="polygon3005_00000065778478324609760180000016980505204435356072_" class="st6" points="607.8,85.7 606.6,99.6 
			594.6,102.9 594.6,114.1 616.7,108 616.8,106.2 619.4,77.8 619.6,74.9 621.6,53.1 594.6,53.1 594.6,63.9 609.8,63.9 608.8,74.9 
			594.6,74.9 594.6,85.7 		"/>
	</g>
</g>
</svg>
