<?xml version="1.0" encoding="utf-8"?>
<!-- Generator: Adobe Illustrator 26.0.1, SVG Export Plug-In . SVG Version: 6.00 Build 0)  -->
<svg version="1.1" id="레이어_1" xmlns="http://www.w3.org/2000/svg" xmlns:xlink="http://www.w3.org/1999/xlink" x="0px"
	 y="0px" viewBox="0 0 500 500" style="enable-background:new 0 0 500 500;" xml:space="preserve">
<style type="text/css">
	.st0{fill:#FFFFFF;}
</style>
<g>
	<g>
		<path class="st0" d="M164.57,171.04c9.15,0,17.92-8.05,17.5-17.5c-0.42-9.48-7.69-17.5-17.5-17.5c-9.15,0-17.92,8.05-17.5,17.5
			C147.5,163.02,154.76,171.04,164.57,171.04L164.57,171.04z"/>
	</g>
</g>
<g>
	<g>
		<path class="st0" d="M337.04,165.42c9.15,0,17.92-8.05,17.5-17.5c-0.42-9.48-7.69-17.5-17.5-17.5c-9.15,0-17.92,8.05-17.5,17.5
			C319.97,157.4,327.23,165.42,337.04,165.42L337.04,165.42z"/>
	</g>
</g>
<g>
	<g>
		<path class="st0" d="M59.5,264.56c18.35,54.81,69.89,87.95,123.79,101.39c30.49,7.61,63.56,11.83,94.89,8.06
			c15.82-1.9,31.03-5.87,45.91-11.56c13.85-5.3,28.15-11.07,40.67-19.11c13.3-8.55,23.25-20.3,30.88-34.05
			c7.27-13.09,12.69-27.12,20.14-40.12c6.41-11.19-10.87-21.27-17.27-10.09c-11.84,20.66-18.53,45.9-37.02,61.99
			c-9.67,8.42-22.28,13.64-33.97,18.59c-12.78,5.41-26.02,9.98-39.64,12.73c-28.46,5.75-58.83,2.73-87.06-2.98
			c-26.09-5.28-51.57-14.12-73.72-29.13c-21.76-14.75-39.89-35.91-48.3-61.04C74.72,247.1,55.39,252.3,59.5,264.56L59.5,264.56z"/>
	</g>
</g>
</svg>
