<?xml version="1.0" encoding="utf-8"?>
<!-- Generator: Adobe Illustrator 25.4.1, SVG Export Plug-In . SVG Version: 6.00 Build 0)  -->
<svg version="1.1" id="Layer_1" xmlns="http://www.w3.org/2000/svg" xmlns:xlink="http://www.w3.org/1999/xlink" x="0px" y="0px"
	 viewBox="0 0 32 32" style="enable-background:new 0 0 32 32;" xml:space="preserve">
<style type="text/css">
	.st0{fill:#8E8E8E;}
</style>
<g>
	<g>
		<path class="st0" d="M11.8,11.7c0.5,0,0.9-0.4,0.9-0.9c0-0.5-0.4-0.9-0.9-0.9c-0.5,0-0.9,0.4-0.9,0.9
			C10.9,11.3,11.3,11.7,11.8,11.7L11.8,11.7z"/>
	</g>
</g>
<g>
	<g>
		<path class="st0" d="M20.8,11.5c0.5,0,0.9-0.4,0.9-0.9c0-0.5-0.4-0.9-0.9-0.9c-0.5,0-0.9,0.4-0.9,0.9C19.9,11,20.3,11.5,20.8,11.5
			L20.8,11.5z"/>
	</g>
</g>
<g>
	<g>
		<path class="st0" d="M6.3,16.6c1,2.9,3.7,4.6,6.5,5.3c1.6,0.4,3.3,0.6,5,0.4c0.8-0.1,1.6-0.3,2.4-0.6c0.7-0.3,1.5-0.6,2.1-1
			c0.7-0.4,1.2-1.1,1.6-1.8c0.4-0.7,0.7-1.4,1.1-2.1c0.3-0.6-0.6-1.1-0.9-0.5c-0.6,1.1-1,2.4-1.9,3.2c-0.5,0.4-1.2,0.7-1.8,1
			c-0.7,0.3-1.4,0.5-2.1,0.7c-1.5,0.3-3.1,0.1-4.5-0.2c-1.4-0.3-2.7-0.7-3.9-1.5c-1.1-0.8-2.1-1.9-2.5-3.2C7.1,15.7,6.1,16,6.3,16.6
			L6.3,16.6z"/>
	</g>
</g>
<g>
	<g>
		<path class="st0" d="M11.8,11.7c0.5,0,0.9-0.4,0.9-0.9c0-0.5-0.4-0.9-0.9-0.9c-0.5,0-0.9,0.4-0.9,0.9
			C10.9,11.3,11.3,11.7,11.8,11.7L11.8,11.7z"/>
	</g>
</g>
<g>
	<g>
		<path class="st0" d="M20.8,11.4c0.5,0,0.9-0.4,0.9-0.9c0-0.5-0.4-0.9-0.9-0.9c-0.5,0-0.9,0.4-0.9,0.9C19.9,11,20.3,11.4,20.8,11.4
			L20.8,11.4z"/>
	</g>
</g>
<g>
	<g>
		<path class="st0" d="M6.3,16.6c1,2.9,3.7,4.6,6.5,5.3c1.6,0.4,3.3,0.6,5,0.4c0.8-0.1,1.6-0.3,2.4-0.6c0.7-0.3,1.5-0.6,2.1-1
			c0.7-0.4,1.2-1.1,1.6-1.8c0.4-0.7,0.7-1.4,1.1-2.1c0.3-0.6-0.6-1.1-0.9-0.5c-0.6,1.1-1,2.4-1.9,3.2c-0.5,0.4-1.2,0.7-1.8,1
			c-0.7,0.3-1.4,0.5-2.1,0.7c-1.5,0.3-3.1,0.1-4.5-0.2c-1.4-0.3-2.7-0.7-3.9-1.5c-1.1-0.8-2.1-1.9-2.5-3.2
			C7.1,15.7,6.1,15.9,6.3,16.6L6.3,16.6z"/>
	</g>
</g>
<g>
	<path class="st0" d="M16,28.6C9,28.6,3.4,23,3.4,16S9,3.4,16,3.4S28.6,9,28.6,16S23,28.6,16,28.6z M16,4.4C9.6,4.4,4.4,9.6,4.4,16
		c0,6.4,5.2,11.6,11.6,11.6c6.4,0,11.6-5.2,11.6-11.6C27.6,9.6,22.4,4.4,16,4.4z"/>
</g>
</svg>
