<?xml version="1.0" encoding="utf-8"?>
<!-- Generator: Adobe Illustrator 25.4.1, SVG Export Plug-In . SVG Version: 6.00 Build 0)  -->
<svg version="1.1" id="Layer_1" xmlns="http://www.w3.org/2000/svg" xmlns:xlink="http://www.w3.org/1999/xlink" x="0px" y="0px"
	 viewBox="0 0 500 500" style="enable-background:new 0 0 500 500;" xml:space="preserve">
<style type="text/css">
	
		.st0{clip-path:url(#SVGID_00000058578696736678971940000014160712215388323241_);fill:url(#SVGID_00000022531793195302221690000004052964618831610253_);}
	.st1{clip-path:url(#SVGID_00000058578696736678971940000014160712215388323241_);fill:#FFFFFF;}
</style>
<g>
	<defs>
		<circle id="SVGID_1_" cx="250" cy="250" r="222.9"/>
	</defs>
	<clipPath id="SVGID_00000068647849134082892240000017224003828318603173_">
		<use xlink:href="#SVGID_1_"  style="overflow:visible;"/>
	</clipPath>
	
		<linearGradient id="SVGID_00000166670843843090822560000017249778199396053667_" gradientUnits="userSpaceOnUse" x1="92.3904" y1="92.3904" x2="407.6096" y2="407.6096">
		<stop  offset="0.1" style="stop-color:#FFFFFF"/>
		<stop  offset="0.8435" style="stop-color:#3F3F3F"/>
	</linearGradient>
	
		<circle style="clip-path:url(#SVGID_00000068647849134082892240000017224003828318603173_);fill:url(#SVGID_00000166670843843090822560000017249778199396053667_);" cx="250" cy="250" r="222.9"/>
	<path style="clip-path:url(#SVGID_00000068647849134082892240000017224003828318603173_);fill:#FFFFFF;" d="M57.1,214.9
		c7.9-2.2,16.1-3,23.7-6.1c28.3-11.4,37.3-49.1,63.9-64c6.4-3.6,13.6-5.7,19.9-9.3c13.1-7.5,21.7-20.9,28.4-34.4s12.4-27.7,22-39.4
		c8.6-10.6,20.9-20.3,21.3-33.9c-60.1-5.7-121.9,8-173.9,38.6c-3.1,1.8-6.2,3.7-8.8,6.2c-3.9,3.7-6.7,8.4-9.2,13.2
		c-5.8,11.3-10.1,23.3-13,35.6c-4.1,17.3-5.2,35.2-6.3,53c-0.6,8.8-1.1,17.6-1.6,26.4c-0.4,6.6-4,21-1.3,27.2
		c4,8.9,8.6,0.7,14.1-3.2C42.6,220.4,49.6,217,57.1,214.9z"/>
	<g style="clip-path:url(#SVGID_00000068647849134082892240000017224003828318603173_);">
		
			<image style="overflow:visible;" width="673" height="969" xlink:href="../../이건주님_프로필 copy.png"  transform="matrix(0.5979 0 0 0.5979 48.8085 -106.4661)">
		</image>
	</g>
	<path style="clip-path:url(#SVGID_00000068647849134082892240000017224003828318603173_);fill:#FFFFFF;" d="M322.1,478.9
		c-1.1-12.4-0.8-25.2,2.8-37.1s10.9-23.1,21.5-29.8c3.9-2.5,8.2-4.3,12-6.9c10.2-7.2,15.2-19.5,19.6-31.1
		c3.7-9.5,7.4-19.1,11.1-28.6c9.2-23.7,20.3-49.6,43.3-60.3c8-3.7,16.8-5.3,25.1-8.1c8.3-2.8,16.7-7.3,21.1-15
		c3.5,6.3,7.1,13.3,8,20.4c0.6,5.3,0.6,10.6,0.5,15.9c-0.5,27.2-1.2,55.1-11.6,80.2c-10.2,24.7-29.3,45-51.1,60.6
		c-21.7,15.6-46.2,27-70.6,38.1C342.7,482.1,333.1,484.1,322.1,478.9z"/>
</g>
</svg>
