<?xml version="1.0" encoding="utf-8"?>
<!-- Generator: Adobe Illustrator 26.0.1, SVG Export Plug-In . SVG Version: 6.00 Build 0)  -->
<svg version="1.1" id="레이어_1" xmlns="http://www.w3.org/2000/svg" xmlns:xlink="http://www.w3.org/1999/xlink" x="0px"
	 y="0px" viewBox="0 0 500 500" style="enable-background:new 0 0 500 500;" xml:space="preserve">
<style type="text/css">
	.st0{fill:#FFFFFF;}
</style>
<path class="st0" d="M360.23,176.04H138.69c-8.26,0-14.96-6.7-14.96-14.96v0c0-8.26,6.7-14.96,14.96-14.96h221.53
	c8.26,0,14.96,6.7,14.96,14.96v0C375.18,169.34,368.49,176.04,360.23,176.04z"/>
<path class="st0" d="M360.23,264H138.69c-8.26,0-14.96-6.7-14.96-14.96v0c0-8.26,6.7-14.96,14.96-14.96h221.53
	c8.26,0,14.96,6.7,14.96,14.96v0C375.18,257.3,368.49,264,360.23,264z"/>
<path class="st0" d="M360.23,352.1H138.69c-8.26,0-14.96-6.7-14.96-14.96v0c0-8.26,6.7-14.96,14.96-14.96h221.53
	c8.26,0,14.96,6.7,14.96,14.96v0C375.18,345.41,368.49,352.1,360.23,352.1z"/>
</svg>
